<?xml version="1.0" standalone="no"?>
<!DOCTYPE svg PUBLIC "-//W3C//DTD SVG 1.1//EN" "http://www.w3.org/Graphics/SVG/1.1/DTD/svg11.dtd" >
<svg xmlns="http://www.w3.org/2000/svg">
<metadata></metadata>
<defs>
<font id="oswald_stencilregular" horiz-adv-x="1198" >
<font-face units-per-em="2048" ascent="1638" descent="-410" />
<missing-glyph horiz-adv-x="290" />
<glyph unicode="&#xd;" horiz-adv-x="115" />
<glyph unicode=" "  horiz-adv-x="290" />
<glyph unicode="&#x09;" horiz-adv-x="290" />
<glyph unicode="&#xa0;" horiz-adv-x="290" />
<glyph unicode="!" horiz-adv-x="504" d="M199 445l-99 1336h310l-109 -1336h-102zM105 0v286h292v-286h-292z" />
<glyph unicode="&#x22;" horiz-adv-x="744" d="M135 1248l-81 534h266q-3 -18 -6.5 -268t-5.5 -266h-173zM431 1248v534h259q-2 -11 -24 -140.5t-43 -254t-24 -139.5h-168z" />
<glyph unicode="#" horiz-adv-x="1121" d="M123 0l110 626h-145v226h180l28 142h-197v223h233l98 566h195l-99 -566h149l99 566h194l-99 -566h140v-223h-176l-27 -142h192v-226h-229l-110 -626h-193l110 626h-151l-110 -626h-192zM462 852h150l27 142h-150z" />
<glyph unicode="$" horiz-adv-x="1101" d="M510 1459v431h97v-186q174 -11 289 -123t122 -281v-20q0 -20 1 -20l-318 -48q2 28 2 59q-3 51 -16.5 91.5t-48 70.5t-85.5 30q-17 0 -43 -4zM607 302v-410h-97v164q-106 10 -187.5 51.5t-131.5 107.5t-76 147.5t-29 178.5l313 62q0 -304 175 -304q18 0 33 3zM657 60v258 q57 33 57 130q0 41 -15 78t-48 72.5t-61 60t-78 63.5q-9 7 -13 10l-153 120q-59 46 -98 83.5t-80 90t-61.5 115t-20.5 134.5q0 174 101 284t273 138v-257q-63 -38 -63 -126q0 -70 38 -123.5t111 -109.5l159 -122q66 -50 107.5 -86t86.5 -84.5t69.5 -95t40.5 -107t16 -130.5 q0 -160 -103.5 -267t-264.5 -129z" />
<glyph unicode="%" horiz-adv-x="1866" d="M561 0l571 1810h167l-572 -1810h-166zM1459 794v187q172 -9 248.5 -127t76.5 -329v-60q0 -453 -325 -470l-1 186q55 14 73 85t18 200v55q0 130 -17 195.5t-73 77.5zM1408 181v-186q-324 17 -324 470v60q0 211 75.5 329t248.5 127l1 -186q-57 -12 -75 -78.5t-18 -194.5 v-56q0 -128 18.5 -199.5t73.5 -85.5zM459 1596v187q172 -9 248.5 -127t76.5 -329v-60q0 -453 -325 -470l-1 186q55 14 73 85t18 200v55q0 130 -17 195.5t-73 77.5zM408 983v-186q-324 17 -324 470v60q0 211 75.5 329t248.5 127l1 -186q-57 -12 -75 -78.5t-18 -194.5v-56 q0 -128 18.5 -199.5t73.5 -85.5z" />
<glyph unicode="&#x26;" horiz-adv-x="1177" d="M306 892l170 210q77 95 118 171t41 159q0 57 -23.5 102.5t-73.5 55.5v222q156 -12 250 -111t94 -257q0 -53 -9.5 -103.5t-34 -104.5t-44 -91t-63.5 -97.5t-65.5 -88.5t-76.5 -96l-169 -211q-41 -52 -66.5 -126t-25.5 -145q0 -147 102 -185v-225q-174 6 -269 117t-95 281 q0 135 62.5 257.5t177.5 265.5zM797 124q-120 -145 -319 -153v223q80 6 158 102l348 429l168 -167l-199 -244l145 -188l-181 -161zM453 1155l-171 -211q-147 308 -147 476q0 169 94.5 280t259.5 114v-225q-85 -20 -85 -171q0 -138 49 -263zM781 554l-173 -213 q-144 234 -162 265l172 210z" />
<glyph unicode="'" horiz-adv-x="360" d="M113 1247l-66 533h274q-3 -17 -33.5 -266.5t-33.5 -266.5h-141z" />
<glyph unicode="(" horiz-adv-x="660" d="M616 138v-202q-95 0 -170 33.5t-123 83.5t-83 132t-52.5 153t-27 175t-11.5 170.5t-2 164.5q0 257 2 303q16 439 174 610q111 119 293 119v-202q-46 0 -82.5 -26t-59 -74.5t-37.5 -103.5t-22.5 -128t-10 -132t-2.5 -130q0 -37 1 -93.5t1 -73.5q0 -18 -1 -81.5t-1 -104.5 q0 -72 2.5 -132t10 -132t22.5 -127t38 -103t59 -73.5t82 -25.5z" />
<glyph unicode=")" horiz-adv-x="662" d="M89 -64v202q46 0 82 25.5t59 73.5t38 103t22.5 127t10 132t2.5 132q0 41 -1 104.5t-1 81.5q0 17 0.5 71.5t0.5 90.5q0 71 -2.5 130.5t-9.5 133t-22 129t-37.5 104.5t-59 75.5t-82.5 26.5v202q95 0 170.5 -34t124 -84.5t83 -133.5t52 -155t27.5 -177.5t11.5 -171.5 t1.5 -165v-60q-1 -59 0.5 -125.5t-4 -138t-11.5 -142.5t-23.5 -140t-39.5 -131t-58.5 -114.5t-82 -90.5t-110 -59.5t-141.5 -21.5z" />
<glyph unicode="*" horiz-adv-x="879" d="M605 870l-134 234l-144 -234l-171 102l164 234l-249 96l66 173l229 -119l-25 273h250l-25 -273l229 119l66 -173l-249 -96l164 -234z" />
<glyph unicode="+" horiz-adv-x="737" d="M57 607v148h176v176h186v-176h179v-148h-179v-176h-186v176h-176z" />
<glyph unicode="," horiz-adv-x="451" d="M155 -247l-38 142q56 5 71 25t16 79h-114v287h292v-146q0 -65 -2 -108.5t-8 -92.5t-19 -79.5t-33.5 -57.5t-52 -39t-74.5 -12q-25 0 -38 2z" />
<glyph unicode="-" horiz-adv-x="452" d="M29 452v199h394v-199h-394z" />
<glyph unicode="." horiz-adv-x="494" d="M103 0v286h293v-286h-293z" />
<glyph unicode="/" horiz-adv-x="841" d="M64 0l572 1810h172l-573 -1810h-171z" />
<glyph unicode="0" horiz-adv-x="1125" d="M542 232v-265q-115 3 -202.5 48.5t-140 122.5t-78.5 173.5t-26 210.5v736q0 92 15.5 172.5t49.5 150.5t85.5 120.5t127 80t169.5 32.5v-266q-140 -17 -140 -282v-752q0 -264 140 -282zM592 -32v266q40 8 68 37t41.5 72.5t19 84t5.5 86.5v752q0 257 -134 281v266 q114 -5 200.5 -50t137.5 -121.5t76 -172.5t25 -211v-736q0 -111 -26.5 -207t-78.5 -172.5t-137.5 -123t-196.5 -51.5z" />
<glyph unicode="1" horiz-adv-x="644" d="M177 1671l1 -318l-176 -17v238q114 49 175 97zM227 0l-1 1694q36 26 72 89h230v-1783h-301z" />
<glyph unicode="2" horiz-adv-x="1045" d="M471 332l-245 -332h-179v219l468 685q169 246 169 420q0 83 -33 149t-98 77v265q208 -7 321 -138.5t113 -352.5q0 -245 -209 -538q-85 -131 -307 -454zM504 1815v-265q-33 -6 -58 -25.5t-39.5 -53.5t-23.5 -64.5t-12.5 -78.5t-4 -73t-0.5 -68v-12h-302v93 q0 120 24.5 215.5t76 169.5t137.5 116t202 46zM289 0l218 296h475v-296h-693z" />
<glyph unicode="3" horiz-adv-x="1065" d="M506 1815v-265q-34 -6 -59.5 -30t-39 -53t-21.5 -73t-10 -77.5t-3 -78.5h-303v95q0 214 112 343.5t324 138.5zM506 234v-267q-122 4 -208 45.5t-134 115.5t-70 162.5t-24 202.5v53h303q0 -47 2 -81t10 -78t21.5 -72.5t39 -51.5t60.5 -29zM556 -33v266q43 5 71 29.5 t41 67.5t17.5 84.5t4.5 99.5q0 136 -61 212t-188 76v301q129 0 189 48t60 182q0 203 -134 218v265q212 -7 326 -138t114 -346q0 -124 -51 -227.5t-143 -154.5q95 -64 144.5 -176.5t49.5 -258.5q0 -119 -23.5 -214t-74.5 -170t-137.5 -117.5t-204.5 -46.5z" />
<glyph unicode="4" horiz-adv-x="1056" d="M558 1176l215 606h87v-1782h-302v1176zM508 696v-243h-448v243l430 1086h230l-386 -1086h174zM910 453v243h118v-243h-118z" />
<glyph unicode="5" horiz-adv-x="1093" d="M473 1490v292h485v-292h-485zM473 869v254q73 38 150 38q92 0 163 -30t115.5 -80t73 -122t40 -148.5t11.5 -166.5q0 -635 -443 -647v259q40 7 68.5 36.5t43 65.5t22.5 93t9.5 97t1.5 99q0 60 -6 107t-21.5 92t-48.5 70t-81 25q-51 0 -98 -42zM146 1782h277v-1011h-277 v1011zM533 224v-256q-96 5 -169 36.5t-120 82t-76.5 123.5t-41.5 153t-12 177l303 2q0 -77 4 -127t15.5 -95t35.5 -68t61 -28z" />
<glyph unicode="6" horiz-adv-x="1090" d="M401 1196v-673q0 -267 133 -289v-263q-91 4 -165.5 37t-125 86t-84.5 125t-49 151.5t-15 166.5v666q0 92 12.5 173.5t43.5 161.5t79.5 138.5t126.5 96t177 41.5v-265q-133 -22 -133 -353zM451 817v254q74 31 164 31q411 0 411 -536q0 -92 -14.5 -174.5t-48.5 -158 t-84 -131.5t-125.5 -91t-169.5 -39v262q44 7 73.5 39t42 84t17 97t4.5 104q0 39 -2 71t-8 66.5t-17.5 60.5t-29 47.5t-44 33t-60.5 11.5q-58 0 -109 -31zM584 1548v266q135 -6 229 -75.5t137.5 -177.5t43.5 -245v-31h-295q-2 237 -115 263z" />
<glyph unicode="7" horiz-adv-x="805" d="M483 1782l-56 -266h-396v266h452zM154 0l380 1782h248v-165l-355 -1617h-273z" />
<glyph unicode="8" horiz-adv-x="1094" d="M530 217v-247q-439 13 -439 543q0 152 40 257t132 173q-77 64 -116 165t-39 224q0 141 44.5 246.5t140.5 169t237 68.5v-243q-118 -19 -118 -217q0 -273 118 -301v-244q-142 -28 -142 -314q0 -45 2.5 -79.5t11.5 -72t23.5 -62.5t41.5 -43.5t63 -22.5zM580 -30v247 q36 4 62.5 22.5t42 44t24 63t11.5 72t3 78.5q0 287 -143 314v244q119 26 119 301q0 198 -119 217v243q210 -7 315.5 -137t105.5 -347q0 -264 -154 -389q92 -68 133 -173.5t41 -256.5q0 -528 -441 -543z" />
<glyph unicode="9" horiz-adv-x="1108" d="M713 1259q0 263 -130 289v266q112 -6 198 -58t136.5 -136.5t75.5 -186.5t25 -217v-606q0 -96 -12 -181.5t-43 -168.5t-79 -143.5t-125 -100t-176 -44.5v262q35 7 61 38t38.5 69t20 94.5t9 96t1.5 91.5v636zM663 963v-254q-73 -27 -159 -27q-417 0 -417 535q0 92 15 175 t49 159.5t84.5 133t127 91.5t170.5 39v-265q-44 -6 -74 -37t-43.5 -81.5t-18 -97t-4.5 -104.5q0 -48 2.5 -85t12.5 -79t26.5 -69.5t46.5 -46t71 -18.5q59 0 111 31zM533 234v-263q-105 4 -186 43.5t-131 107.5t-76 155t-29 191v29h296q1 -53 6 -92.5t17.5 -78.5t38.5 -62.5 t64 -29.5z" />
<glyph unicode=":" horiz-adv-x="497" d="M105 878v286h290v-286h-290zM105 179v284h290v-284h-290z" />
<glyph unicode=";" horiz-adv-x="490" d="M95 878v286h291v-286h-291zM158 -74l-37 141q56 6 71 26t16 79h-114v287h292v-137q0 -57 -1 -96t-5.5 -84.5t-12 -74.5t-21.5 -59t-34 -46.5t-49 -27t-66 -10.5q-25 0 -39 2z" />
<glyph unicode="&#x3c;" horiz-adv-x="834" d="M74 518v261l653 456v-264l-452 -321q91 -66 245 -176t207 -148v-264q-621 433 -653 456z" />
<glyph unicode="=" horiz-adv-x="759" d="M83 581v199h588v-199h-588zM83 257v198h588v-198h-588z" />
<glyph unicode="&#x3e;" horiz-adv-x="834" d="M112 62v264l451 324q-23 16 -225.5 160.5t-225.5 160.5v265q620 -435 652 -457v-261z" />
<glyph unicode="?" horiz-adv-x="950" d="M449 1815v-257q-58 -10 -91 -62t-33 -128q0 -80 14 -128l-273 -46q-23 86 -23 195q0 187 105.5 303t300.5 123zM499 1558v257q196 -8 308.5 -123.5t112.5 -323.5q0 -87 -37.5 -176.5t-90.5 -163.5t-106 -144.5t-90.5 -143t-37.5 -135.5v-71h-290v97q0 82 37 164t90 150 t106 135.5t90 146t37 156.5q0 79 -34.5 123t-94.5 52zM263 0v292h300v-292h-300z" />
<glyph unicode="@" horiz-adv-x="1662" d="M1253 330v217q45 20 63.5 97t18.5 167q0 288 -100 442.5t-330 173.5v201q334 -19 510.5 -234.5t176.5 -580.5q0 -130 -36 -235t-114.5 -173.5t-188.5 -74.5zM1203 544v-215q-152 2 -225 65l-73 182v665h255v-583v-22q0 -81 43 -92zM885 110v-201q-417 12 -610.5 233 t-193.5 666q0 247 92.5 433t268 287.5t412.5 101.5v-200q-240 0 -378.5 -163.5t-138.5 -459.5q0 -337 129.5 -510.5t418.5 -186.5zM855 1226v-182q-4 1 -12 1q-30 0 -52.5 -13t-35.5 -38.5t-21.5 -51t-11.5 -64.5t-4 -63t-1 -61q0 -212 106 -212q14 0 31 5l81 -192 q-64 -26 -155 -26q-64 0 -118.5 25.5t-90.5 67t-61.5 95.5t-37 111.5t-11.5 114.5q0 70 9 138t31.5 135.5t56 118.5t86 82.5t118.5 31.5q50 0 93 -23z" />
<glyph unicode="A" horiz-adv-x="1100" d="M572 1135l-117 647h242l378 -1782h-305zM403 1782l121 -668l-86 -530h182l27 -185h-232l-77 -399h-313z" />
<glyph unicode="B" horiz-adv-x="1115" d="M482 856v211h51q51 0 87 20.5t54.5 58.5t26 82t7.5 102q0 76 -13.5 124t-43.5 72.5t-66 32.5t-93 8h-10v215h4q121 0 211.5 -23t161 -74.5t107 -142t36.5 -218.5q0 -261 -253 -351q106 -28 174.5 -96.5t96 -154.5t27.5 -195q0 -263 -119.5 -395t-377.5 -132h-68v226h38 q56 0 95.5 14t63.5 38t37.5 66t18 88t4.5 114q0 70 -10 123.5t-34 97t-67.5 66.5t-106.5 23h-39zM432 0h-316v1782h316v-1782z" />
<glyph unicode="C" horiz-adv-x="1152" d="M620 -33v247q45 6 76 35.5t46 77.5t20.5 97t5.5 111v170h309v-137q-8 -584 -457 -601zM620 1567v248q124 -4 214 -49.5t142 -125t76.5 -180.5t24.5 -228v-136h-310v152q0 61 -5 108.5t-19.5 96t-45.5 78.5t-77 36zM570 1815v-247q-162 -18 -162 -288v-779 q0 -270 162 -288v-246q-478 16 -478 611v624q0 597 478 613z" />
<glyph unicode="D" horiz-adv-x="1148" d="M482 0v225h9q146 0 197 43.5t51 168.5v925q0 105 -57 149t-186 45h-14v226h12q112 0 197.5 -15t147.5 -47.5t104 -77.5t67 -111t35.5 -141.5t10.5 -174.5v-615q0 -88 -6 -156t-22 -132.5t-43.5 -111t-70 -86t-102 -63.5t-139.5 -37.5t-182 -13.5h-9zM432 0h-316v1782h316 v-1782z" />
<glyph unicode="E" horiz-adv-x="871" d="M432 0h-316v1782h316v-1782zM482 0v221h351v-221h-351zM482 1561v221h351v-221h-351zM482 810v225h235v-225h-235z" />
<glyph unicode="F" horiz-adv-x="842" d="M432 0h-316v1782h316v-1782zM482 1561v221h351v-221h-351zM482 810v225h235v-225h-235z" />
<glyph unicode="G" horiz-adv-x="1211" d="M628 1568v247q471 -13 471 -594v-85h-305v100q0 52 -2.5 90t-12 84.5t-26.5 77t-49 53t-76 27.5zM623 -25v238q171 14 171 284v177h-129v229h445v-903h-209l-46 135q-34 -60 -96 -102t-136 -58zM574 214v-246q-9 -1 -26 -1q-103 0 -184 36.5t-131 94t-82.5 135.5 t-45.5 154.5t-13 157.5v655q0 597 486 614v-247q-49 -6 -84 -33t-53 -69t-25.5 -85.5t-7.5 -94.5v-795q0 -254 166 -276z" />
<glyph unicode="H" horiz-adv-x="1187" d="M753 1782h319v-1782h-319v810h-271v202h271v770zM433 1782l-1 -1782h-316v1782h317z" />
<glyph unicode="I" horiz-adv-x="548" d="M115 0v1782h317v-1782h-317z" />
<glyph unicode="J" horiz-adv-x="612" d="M3 -26v224q78 0 113 16t50 63.5t15 151.5v1353h316v-1355q0 -98 -8.5 -164.5t-33 -125t-69 -92t-115.5 -52.5t-172 -19h-96z" />
<glyph unicode="K" horiz-adv-x="1147" d="M482 857v237l272 688h351l-364 -801l403 -981h-329zM432 0h-316v1782h316v-1782z" />
<glyph unicode="L" horiz-adv-x="837" d="M432 0h-316v1782h316v-1782zM482 0v221h336v-221h-336z" />
<glyph unicode="M" horiz-adv-x="1518" d="M429 1781l441 -1781h-215l-244 871v910h18zM887 141l-103 421l302 1219h21v-910zM361 0h-245v1782h245v-1782zM1402 0h-245v1782h245v-1782z" />
<glyph unicode="N" horiz-adv-x="1183" d="M116 1783h229l43 -104v-1679h-272v1783zM846 0l-42 105v1678h263v-1783h-221zM438 949v609l316 -690v-637z" />
<glyph unicode="O" d="M573 1815v-247q-165 -18 -165 -288v-780q0 -269 165 -287v-246q-106 3 -189.5 36t-137.5 87t-89 130.5t-50 162.5t-15 188v631q0 597 481 613zM623 1568v247q483 -16 483 -613v-624q0 -102 -14.5 -188.5t-50 -164t-90 -132.5t-138 -88.5t-190.5 -37.5v246q166 18 166 287 v780q0 270 -166 288z" />
<glyph unicode="P" horiz-adv-x="1028" d="M432 1782v-1782h-316v1782h316zM482 1554v228h66q439 0 439 -499q0 -274 -121.5 -393.5t-371.5 -120.5h-12v227h26q48 0 80.5 12t51.5 32.5t29 60t13 80t3 107.5q0 56 -3.5 91t-18 72t-41 57t-74 33t-116.5 13h50z" />
<glyph unicode="Q" horiz-adv-x="1205" d="M575 214v-249q-126 4 -220.5 51t-151 129t-84 188.5t-27.5 237.5v631q0 597 483 613v-248q-48 -6 -82.5 -33.5t-52 -69.5t-25 -87t-7.5 -97v-779q0 -266 167 -287zM625 -35v248q52 4 87.5 30t52.5 69.5t23.5 88t6.5 100.5v779q0 272 -170 288v247q486 -12 486 -613v-624 q0 -367 -211 -532q37 -64 184 -78v-197q-77 1 -140.5 19.5t-108.5 50.5t-74 62t-56 70q-43 -7 -80 -8z" />
<glyph unicode="R" horiz-adv-x="1119" d="M482 831v200h99q38 0 68 19t46.5 47.5t26.5 66t13.5 68t3.5 61.5q0 40 -5.5 78.5t-19.5 81.5t-44.5 69t-74.5 26h-113v234h44q528 0 528 -467q0 -42 -1 -71t-6 -70t-13.5 -71t-25 -66t-40 -63t-58.5 -53.5t-80 -46.5l253 -874h-323l-207 831h-71zM432 0h-316v1782h316 v-1782z" />
<glyph unicode="S" horiz-adv-x="1054" d="M557 1569v247q183 -4 306.5 -130t131.5 -313v-37l-321 -50q0 9 1 29t1 31q-4 81 -32.5 144t-86.5 79zM520 214v-248q-88 5 -162 36t-125.5 80.5t-88.5 116t-56.5 140t-25.5 154.5l317 64q10 -308 141 -343zM614 1037l-213 -213l-72 68q-49 43 -79.5 72.5t-70 77.5 t-61.5 91.5t-38 104t-16 127.5q0 198 121 318t322 132v-243q-64 -6 -98 -54.5t-34 -118.5q0 -84 39.5 -150t111.5 -130q18 -16 88 -82zM437 791l212 211l37 -33q74 -69 124 -125t97 -128t70.5 -154.5t23.5 -176.5q0 -183 -124 -298.5t-307 -121.5v244q124 8 124 163 q0 181 -217 382z" />
<glyph unicode="T" horiz-adv-x="884" d="M285 1494h317v-1494h-317v1494zM5 1544v238h874v-238h-874z" />
<glyph unicode="U" horiz-adv-x="1223" d="M639 -33v245q33 2 57.5 12t42 24.5t29 43t18.5 55t10 74t4 87.5t1 107v1167h316v-1168q0 -78 -4.5 -142t-18 -131.5t-35.5 -120t-58.5 -100.5t-85.5 -80t-119 -51.5t-157 -21.5zM589 213v-246q-86 2 -156 22t-120 52t-87 80t-59.5 100.5t-36.5 120t-19 131.5t-5 141v1168 h317v-1167q0 -85 3.5 -141.5t13 -108t28 -81t48.5 -48.5t73 -23z" />
<glyph unicode="V" horiz-adv-x="1053" d="M498 747l-130 -747l-341 1782h304zM419 0l306 1782h301l-356 -1782h-251z" />
<glyph unicode="W" horiz-adv-x="1475" d="M1185 0l-129 850l114 932h273zM418 851l133 -851h-259l-260 1782h273zM900 0l-278 1782h240l141 -932l133 -850h-236zM591 1649l109 -685l-114 -867l-117 755z" />
<glyph unicode="X" horiz-adv-x="1078" d="M313 864l156 -394l-167 -470h-297zM708 0l-704 1782h332l706 -1782h-334zM724 940l-160 401l140 441h303z" />
<glyph unicode="Y" horiz-adv-x="1002" d="M654 339v-339h-308v581l-344 1201h291zM654 546l-125 506l125 730h346z" />
<glyph unicode="Z" horiz-adv-x="975" d="M357 0l84 221h452v-221h-536zM611 1782l-84 -222h-393v222h477zM77 219l588 1563h228v-210l-589 -1572h-227v219z" />
<glyph unicode="[" horiz-adv-x="715" d="M412 1878v-1942h-257v1942h257zM462 -64v141h191v-141h-191zM462 1738v140h191v-140h-191z" />
<glyph unicode="\" horiz-adv-x="631" d="M327 0l-277 1816h256l277 -1816h-256z" />
<glyph unicode="]" horiz-adv-x="678" d="M303 -64v1903h233v-1903h-233zM252 1839v-118h-187v118h187zM252 54v-118h-187v118h187z" />
<glyph unicode="^" horiz-adv-x="912" d="M325 905h-265l261 560h131v-204zM894 905h-265l-127 356v204h131q246 -532 261 -560z" />
<glyph unicode="_" horiz-adv-x="848" d="M30 0v199h782v-199h-782z" />
<glyph unicode="`" horiz-adv-x="595" d="M243 1740l273 -362h-211l-366 362h304z" />
<glyph unicode="a" horiz-adv-x="1100" d="M645 1782l-117 -647l-198 -1135h-305l378 1782h242zM576 1114l121 668l378 -1782h-313l-77 399h-232l27 185h182z" />
<glyph unicode="b" horiz-adv-x="1115" d="M482 856v211h51q51 0 87 20.5t54.5 58.5t26 82t7.5 102q0 76 -13.5 124t-43.5 72.5t-66 32.5t-93 8h-10v215h4q121 0 211.5 -23t161 -74.5t107 -142t36.5 -218.5q0 -261 -253 -351q106 -28 174.5 -96.5t96 -154.5t27.5 -195q0 -263 -119.5 -395t-377.5 -132h-68v226h38 q56 0 95.5 14t63.5 38t37.5 66t18 88t4.5 114q0 70 -10 123.5t-34 97t-67.5 66.5t-106.5 23h-39zM432 0h-316v1782h316v-1782z" />
<glyph unicode="c" horiz-adv-x="1152" d="M620 -33v247q45 6 76 35.5t46 77.5t20.5 97t5.5 111v170h309v-137q-8 -584 -457 -601zM620 1567v248q124 -4 214 -49.5t142 -125t76.5 -180.5t24.5 -228v-136h-310v152q0 61 -5 108.5t-19.5 96t-45.5 78.5t-77 36zM570 1815v-247q-162 -18 -162 -288v-779 q0 -270 162 -288v-246q-478 16 -478 611v624q0 597 478 613z" />
<glyph unicode="d" horiz-adv-x="1148" d="M482 0v225h9q146 0 197 43.5t51 168.5v925q0 105 -57 149t-186 45h-14v226h12q112 0 197.5 -15t147.5 -47.5t104 -77.5t67 -111t35.5 -141.5t10.5 -174.5v-615q0 -88 -6 -156t-22 -132.5t-43.5 -111t-70 -86t-102 -63.5t-139.5 -37.5t-182 -13.5h-9zM432 0h-316v1782h316 v-1782z" />
<glyph unicode="e" horiz-adv-x="871" d="M432 0h-316v1782h316v-1782zM482 0v221h351v-221h-351zM482 1561v221h351v-221h-351zM482 810v225h235v-225h-235z" />
<glyph unicode="f" horiz-adv-x="842" d="M432 0h-316v1782h316v-1782zM482 1561v221h351v-221h-351zM482 810v225h235v-225h-235z" />
<glyph unicode="g" horiz-adv-x="1211" d="M628 1568v247q471 -13 471 -594v-85h-305v100q0 52 -2.5 90t-12 84.5t-26.5 77t-49 53t-76 27.5zM623 -25v238q171 14 171 284v177h-129v229h445v-903h-209l-46 135q-34 -60 -96 -102t-136 -58zM574 214v-246q-9 -1 -26 -1q-103 0 -184 36.5t-131 94t-82.5 135.5 t-45.5 154.5t-13 157.5v655q0 597 486 614v-247q-49 -6 -84 -33t-53 -69t-25.5 -85.5t-7.5 -94.5v-795q0 -254 166 -276z" />
<glyph unicode="h" horiz-adv-x="1187" d="M753 1782h319v-1782h-319v810h-271v202h271v770zM433 1782l-1 -1782h-316v1782h317z" />
<glyph unicode="i" horiz-adv-x="548" d="M115 0v1782h317v-1782h-317z" />
<glyph unicode="j" horiz-adv-x="612" d="M3 -26v224q78 0 113 16t50 63.5t15 151.5v1353h316v-1355q0 -98 -8.5 -164.5t-33 -125t-69 -92t-115.5 -52.5t-172 -19h-96z" />
<glyph unicode="k" horiz-adv-x="1147" d="M482 857v237l272 688h351l-364 -801l403 -981h-329zM432 0h-316v1782h316v-1782z" />
<glyph unicode="l" horiz-adv-x="837" d="M432 0h-316v1782h316v-1782zM482 0v221h336v-221h-336z" />
<glyph unicode="m" horiz-adv-x="1518" d="M1086 1781h21v-910l-263 -871h-170l-263 871v910h18l330 -1332zM361 0h-245v1782h245v-1782zM1402 0h-245v1782h245v-1782z" />
<glyph unicode="n" horiz-adv-x="1183" d="M116 1783h229l43 -104v-1679h-272v1783zM846 0l-42 105v1678h263v-1783h-221zM438 949v609l316 -690v-637z" />
<glyph unicode="o" d="M573 1815v-247q-165 -18 -165 -288v-780q0 -269 165 -287v-246q-106 3 -189.5 36t-137.5 87t-89 130.5t-50 162.5t-15 188v631q0 597 481 613zM623 1568v247q483 -16 483 -613v-624q0 -102 -14.5 -188.5t-50 -164t-90 -132.5t-138 -88.5t-190.5 -37.5v246q166 18 166 287 v780q0 270 -166 288z" />
<glyph unicode="p" horiz-adv-x="1028" d="M432 1782v-1782h-316v1782h316zM482 1554v228h66q439 0 439 -499q0 -274 -121.5 -393.5t-371.5 -120.5h-12v227h26q48 0 80.5 12t51.5 32.5t29 60t13 80t3 107.5q0 56 -3.5 91t-18 72t-41 57t-74 33t-116.5 13h50z" />
<glyph unicode="q" horiz-adv-x="1205" d="M575 214v-249q-126 4 -220.5 51t-151 129t-84 188.5t-27.5 237.5v631q0 597 483 613v-248q-48 -6 -82.5 -33.5t-52 -69.5t-25 -87t-7.5 -97v-779q0 -266 167 -287zM625 -35v248q52 4 87.5 30t52.5 69.5t23.5 88t6.5 100.5v779q0 272 -170 288v247q486 -12 486 -613v-624 q0 -367 -211 -532q37 -64 184 -78v-197q-77 1 -140.5 19.5t-108.5 50.5t-74 62t-56 70q-43 -7 -80 -8z" />
<glyph unicode="r" horiz-adv-x="1119" d="M482 831v200h99q38 0 68 19t46.5 47.5t26.5 66t13.5 68t3.5 61.5q0 40 -5.5 78.5t-19.5 81.5t-44.5 69t-74.5 26h-113v234h44q528 0 528 -467q0 -42 -1 -71t-6 -70t-13.5 -71t-25 -66t-40 -63t-58.5 -53.5t-80 -46.5l253 -874h-323l-207 831h-71zM432 0h-316v1782h316 v-1782z" />
<glyph unicode="s" horiz-adv-x="1054" d="M557 1569v247q183 -4 306.5 -130t131.5 -313v-37l-321 -50q0 9 1 29t1 31q-4 81 -32.5 144t-86.5 79zM520 214v-248q-88 5 -162 36t-125.5 80.5t-88.5 116t-56.5 140t-25.5 154.5l317 64q10 -308 141 -343zM614 1037l-213 -213l-72 68q-49 43 -79.5 72.5t-70 77.5 t-61.5 91.5t-38 104t-16 127.5q0 198 121 318t322 132v-243q-64 -6 -98 -54.5t-34 -118.5q0 -84 39.5 -150t111.5 -130q18 -16 88 -82zM437 791l212 211l37 -33q74 -69 124 -125t97 -128t70.5 -154.5t23.5 -176.5q0 -183 -124 -298.5t-307 -121.5v244q124 8 124 163 q0 181 -217 382z" />
<glyph unicode="t" horiz-adv-x="884" d="M285 1494h317v-1494h-317v1494zM5 1544v238h874v-238h-874z" />
<glyph unicode="u" horiz-adv-x="1223" d="M639 -33v245q33 2 57.5 12t42 24.5t29 43t18.5 55t10 74t4 87.5t1 107v1167h316v-1168q0 -78 -4.5 -142t-18 -131.5t-35.5 -120t-58.5 -100.5t-85.5 -80t-119 -51.5t-157 -21.5zM589 213v-246q-86 2 -156 22t-120 52t-87 80t-59.5 100.5t-36.5 120t-19 131.5t-5 141v1168 h317v-1167q0 -85 3.5 -141.5t13 -108t28 -81t48.5 -48.5t73 -23z" />
<glyph unicode="v" horiz-adv-x="1053" d="M498 747l-130 -747l-341 1782h304zM419 0l306 1782h301l-356 -1782h-251z" />
<glyph unicode="w" horiz-adv-x="1475" d="M1185 0l-129 850l114 932h273zM418 851l133 -851h-259l-260 1782h273zM586 97l-117 755l142 930h251l141 -932l133 -850h-231l-167 1254z" />
<glyph unicode="x" horiz-adv-x="1078" d="M313 864l156 -394l-167 -470h-297zM708 0l-704 1782h332l706 -1782h-334zM724 940l-160 401l140 441h303z" />
<glyph unicode="y" horiz-adv-x="1002" d="M654 339v-339h-308v581l-344 1201h291zM654 546l-125 506l125 730h346z" />
<glyph unicode="z" horiz-adv-x="975" d="M357 0l84 221h452v-221h-536zM611 1782l-84 -222h-393v222h477zM77 219l588 1563h228v-210l-589 -1572h-227v219z" />
<glyph unicode="{" horiz-adv-x="708" d="M644 135v-197q-115 0 -197 29.5t-131 79t-77 131t-37.5 166.5t-9.5 205v61q0 40 -3.5 65.5t-16 51t-40 37.5t-70.5 12v265q42 0 70 24t40 67t16 81t4 88v66q0 147 20 240.5t71.5 156.5t138 89t222.5 26v-198q-42 0 -73 -6.5t-52.5 -14.5t-35.5 -31t-21.5 -39.5t-11 -57 t-4 -67t-0.5 -85.5q0 -52 -3.5 -100.5t-15 -107t-30 -106t-51 -90.5t-74.5 -67q51 -25 86 -64.5t52 -91t24 -98t10 -108.5q1 -21 2 -63q2 -77 4.5 -114t13.5 -91.5t31 -79.5t57 -44.5t92 -19.5z" />
<glyph unicode="|" horiz-adv-x="426" d="M138 -130v2052h198v-2052h-198z" />
<glyph unicode="}" horiz-adv-x="710" d="M60 -62v197q35 0 62.5 6.5t47 21t34 31.5t23.5 43.5t15 51.5t9 61t4.5 66.5t2.5 73.5q1 25 1 37q2 66 8.5 114.5t23.5 103t52.5 96t88.5 68.5q-52 29 -88.5 85t-54 126t-24.5 132.5t-7 127.5v61t-1.5 52t-4 47t-7.5 38t-12 33.5t-18 25t-25.5 20.5t-33.5 13t-42.5 9 t-53.5 2v198q136 0 222.5 -26t138 -89t71.5 -156.5t20 -240.5q0 -8 -0.5 -30.5t-0.5 -35.5q0 -50 4 -88t16 -81t40 -67t71 -24v-265q-43 0 -70.5 -12t-40 -37.5t-16.5 -51t-4 -65.5q0 -10 0.5 -30t0.5 -31q0 -120 -9.5 -205.5t-37.5 -166.5t-77 -130.5t-131 -79t-197 -29.5z " />
<glyph unicode="~" horiz-adv-x="980" d="M297 868h-167q0 53 12 100.5t36.5 88.5t69 65.5t103.5 24.5q55 0 153 -42.5t130 -42.5q41 0 43 69h167q0 -51 -11.5 -98t-36 -89.5t-69 -68t-104.5 -25.5q-59 0 -159 43t-127 43q-38 0 -40 -68z" />
<glyph unicode="&#xa1;" horiz-adv-x="504" d="M105 1495v286h292v-286h-292zM100 0l99 1336h102l109 -1336h-310z" />
<glyph unicode="&#xa2;" horiz-adv-x="1152" d="M563 67v247q45 6 76 35.5t46 77.5t20.5 97t5.5 111v70h309v-37q-8 -584 -457 -601zM563 1367v248q124 -4 214 -49.5t142 -125t76.5 -180.5t24.5 -228v-96h-310v112q0 61 -5 108.5t-19.5 96t-45.5 78.5t-77 36zM513 1615v-247q-162 -18 -162 -288v-479q0 -270 162 -288 v-246q-478 16 -478 611v324q0 597 478 613zM484 1663v198h110v-198h-110zM484 -188v198h110v-198h-110z" />
<glyph unicode="&#xa3;" horiz-adv-x="1070" d="M519 0h-441v159l122 57v519h-122v225h122v246q0 64 3 116t12.5 116.5t26 114t46 100t70 83.5t100.5 54.5t134 23.5v-248q-13 -3 -24 -13t-18.5 -28t-13 -35.5t-8.5 -48t-5 -52t-3 -60t-1 -59.5v-62v-13v-1195zM642 1559v254q66 -3 119 -22t88 -46t60.5 -68.5t39 -81 t21.5 -93t10 -94.5t2 -95h-281q0 56 -2 93.5t-16 87t-41 65.5zM569 0v246h405v-246h-405zM569 735v226h203v-226h-203z" />
<glyph unicode="&#xa4;" horiz-adv-x="1048" d="M500 600v-152q-119 6 -203 60l-84 -94l-82 78l84 94q-80 103 -80 253q0 145 79 249l-83 93l82 78l83 -92q85 55 204 61v-153q-94 -9 -143.5 -77t-49.5 -159t51.5 -160t141.5 -79zM550 448v152q93 10 142.5 78.5t49.5 159.5t-49.5 159.5t-142.5 77.5v153q119 -6 207 -63 l84 94l82 -78l-86 -96q77 -102 77 -246q0 -146 -78 -250l87 -97l-82 -78l-85 96q-87 -56 -206 -62z" />
<glyph unicode="&#xa5;" horiz-adv-x="1053" d="M848 427v-175h-194v-252h-308v252h-190v175h190v125h-190v172h149l-303 1058h291l339 -1355h216zM654 552l-125 500l125 730h346l-298 -1058h146v-172h-194z" />
<glyph unicode="&#xa6;" horiz-adv-x="433" d="M107 -15v640h211v-640h-211zM107 898v639h211v-639h-211z" />
<glyph unicode="&#xa7;" horiz-adv-x="985" d="M513 1615v214q142 -8 233 -104t126 -246l-201 -66q-60 180 -158 202zM463 195v-214q-145 9 -236.5 106t-130.5 250l197 66q16 -45 37 -84.5t57 -77t76 -46.5zM513 509l-2 266q112 0 112 99q0 60 -110 160l-1 289q47 -30 74 -48t71 -50t70 -56.5t58 -61t49.5 -70t30 -76 t12.5 -87.5q0 -93 -39 -152.5t-128 -91.5q70 -48 114.5 -136t44.5 -172q0 -159 -98.5 -247.5t-257.5 -94.5v213q51 5 76.5 38.5t25.5 89.5q0 101 -102 188zM463 807v-270q-25 17 -78.5 50t-85 53t-74.5 56.5t-67 69.5t-41.5 80.5t-17.5 101.5q0 99 50.5 171t145.5 108 q-188 129 -188 262q0 158 98.5 245.5t257.5 94.5v-212q-47 -7 -73 -40t-26 -85q0 -69 82 -127l17 -11v-295q-66 0 -91.5 -25.5t-25.5 -72.5q0 -46 31 -81.5t86 -72.5z" />
<glyph unicode="&#xa8;" horiz-adv-x="898" d="M115 1468v280h277v-280h-277zM553 1468v280h277v-280h-277z" />
<glyph unicode="&#xa9;" horiz-adv-x="1565" d="M806 1044v154q62 -3 109 -26.5t75 -58t45.5 -82t23.5 -92t6 -93.5h-185q-1 35 -2.5 57t-8 57t-22.5 56.5t-41 27.5zM806 221v158q21 7 36 25t22 38.5t11.5 51t5 49.5t0.5 47h183q0 -53 -7.5 -101.5t-26.5 -96t-47.5 -83.5t-74 -60t-102.5 -28zM756 377v-156 q-43 2 -79 13.5t-62.5 27t-47 42.5t-34 51.5t-23 62t-14.5 66.5t-7.5 73t-3 73t-0.5 75q0 48 0.5 77t3 74.5t7.5 74t14.5 67t23 63t34 51.5t46.5 43t62 27.5t80 14.5v-154q-55 -12 -76.5 -84.5t-21.5 -242.5q0 -129 10.5 -201.5t31 -102t56.5 -35.5zM756 142v-154 q-193 5 -349.5 106t-242 263.5t-85.5 350.5t85.5 350.5t242 264t349.5 106.5v-160q-147 -5 -263 -86.5t-177 -208t-61 -269.5t61 -268.5t177 -207t263 -87.5zM806 -11v154q108 6 201 55.5t155.5 127t98 176t35.5 203.5t-35.5 203.5t-98 176t-155.5 127t-201 56.5v160 q144 -6 269.5 -67.5t212 -159t136.5 -226t50 -267.5q0 -186 -84.5 -347t-238.5 -262.5t-345 -109.5z" />
<glyph unicode="&#xab;" horiz-adv-x="1014" d="M513 77l-434 499v128l434 499v-294l-260 -268l260 -270v-294zM931 77l-435 499v128l435 499v-294l-260 -268l260 -270v-294z" />
<glyph unicode="&#xac;" horiz-adv-x="791" d="M128 452v199h523v-393h-135v194h-388z" />
<glyph unicode="&#xad;" horiz-adv-x="772" d="M136 436v224h519v-224h-519z" />
<glyph unicode="&#xae;" horiz-adv-x="1565" d="M803 -12v155q145 7 259.5 88.5t174 206.5t59.5 267q0 141 -60 266t-174.5 207t-258.5 90v160q144 -5 270 -66t213.5 -159t137.5 -227t50 -268t-50 -268t-137.5 -227t-213.5 -159t-270 -66zM753 143v-155q-144 5 -271 65.5t-214.5 158.5t-138 227.5t-50.5 268.5 q0 187 85 349.5t241 264t348 107.5v-160q-146 -6 -261.5 -87.5t-176 -207.5t-60.5 -269q0 -142 61 -267t176.5 -206.5t260.5 -88.5zM738 664v108q78 2 110 30t32 104q0 131 -124 131h-18v127h32q275 0 275 -261q0 -69 -34 -122t-97 -83l146 -417h-175l-120 383h-27zM688 281 h-161v883h161v-883z" />
<glyph unicode="&#xaf;" horiz-adv-x="490" d="M1 1440v176h493v-176h-493z" />
<glyph unicode="&#xb0;" horiz-adv-x="993" d="M464 1279v-171q-156 7 -245.5 105.5t-89.5 255.5t89.5 255t245.5 105v-172q-71 -8 -108 -60.5t-37 -127.5q0 -74 37.5 -127.5t107.5 -62.5zM514 1108v171q71 9 109.5 62.5t38.5 126.5q0 74 -38 127t-110 62v173q158 -7 248.5 -105t90.5 -256q0 -157 -90.5 -255.5 t-248.5 -105.5z" />
<glyph unicode="&#xb1;" horiz-adv-x="852" d="M130 0v199h586v-199h-586zM323 388v193h-193v199h193v194h201v-194h192v-199h-192v-193h-201z" />
<glyph unicode="&#xb2;" horiz-adv-x="711" d="M330 1567v-151q-22 -10 -33.5 -40t-13 -53t-1.5 -61h-205q0 135 65 216t188 89zM253 584l109 148h262v-148h-371zM190 584h-113v137q60 77 97 126.5t106 147.5t106 172.5t37 117.5q0 112 -43 131v151q118 -7 182.5 -81.5t64.5 -200.5q0 -108 -144 -304z" />
<glyph unicode="&#xb3;" horiz-adv-x="816" d="M381 1618l1 -149q-24 -9 -36.5 -39.5t-14 -54t-1.5 -62.5h-201q0 135 64.5 216t187.5 89zM381 784v-149q-123 7 -187.5 88t-64.5 216h201q0 -39 1.5 -62.5t14 -54t35.5 -38.5zM432 635v152q43 20 43 132q0 69 -33 104t-104 38v142q74 5 105.5 35.5t31.5 97.5 q0 109 -43 131v151q117 -8 181 -83t64 -197q0 -72 -36 -125.5t-102 -81.5q65 -29 101.5 -85t36.5 -127q0 -124 -64 -199.5t-181 -84.5z" />
<glyph unicode="&#xb4;" horiz-adv-x="595" d="M109 1378l273 362h304l-366 -362h-211z" />
<glyph unicode="&#xb6;" horiz-adv-x="1009" d="M393 0v885q-163 2 -266.5 90.5t-103.5 242.5q0 89 31 155t87.5 105t130.5 58t166 19h480v-1555h-186v885h-135v-885h-204z" />
<glyph unicode="&#xb7;" horiz-adv-x="503" d="M106 685v284h292v-284h-292z" />
<glyph unicode="&#xb8;" horiz-adv-x="555" d="M127 -524v139h9q196 -1 196 47q0 9 -3.5 18t-11 17.5t-14.5 16t-19.5 15.5t-20.5 13t-23 12.5l-21 10.5t-21 9.5t-17 7.5v93l147 -1q203 -100 203 -217q0 -181 -404 -181z" />
<glyph unicode="&#xb9;" horiz-adv-x="553" d="M208 635v866q71 52 117 113h87v-979h-204zM158 1472v-206q-20 -4 -74 -9t-56 -6v146q75 37 130 75z" />
<glyph unicode="&#xbb;" horiz-adv-x="1013" d="M86 77v294l261 270l-261 268v294l435 -499v-128zM504 77v294l260 270l-260 268v294l434 -499v-128z" />
<glyph unicode="&#xbc;" horiz-adv-x="1651" d="M407 0l571 1810h173l-573 -1810h-171zM213 636v866q71 52 117 113h87v-979h-204zM163 1473v-206q-20 -4 -74 -9t-56 -6v146q75 37 130 75zM1460 1030h3v-1029h-203v568zM1406 1030l-270 -620h74v-146h-267v137l302 629h161zM1513 264v146h81v-146h-81z" />
<glyph unicode="&#xbd;" horiz-adv-x="1699" d="M434 0l571 1810h172l-572 -1810h-171zM213 636v866q71 52 117 113h87v-979h-204zM163 1473v-206q-20 -4 -74 -9t-56 -6v146q75 37 130 75zM1333 982v-151q-22 -10 -33.5 -40t-13 -53t-1.5 -61h-205q0 135 65 216t188 89zM1256 -1l109 148h262v-148h-371zM1193 -1h-113 v137q60 77 97 126.5t106 147.5t106 172.5t37 117.5q0 112 -43 131v151q118 -7 182.5 -81.5t64.5 -200.5q0 -108 -144 -304z" />
<glyph unicode="&#xbe;" horiz-adv-x="1894" d="M600 0l571 1810h173l-573 -1810h-171zM1650 1030h3v-1029h-203v568zM1596 1030l-270 -620h74v-146h-267v137l302 629h161zM1703 264v146h81v-146h-81zM381 1618l1 -149q-24 -9 -36.5 -39.5t-14 -54t-1.5 -62.5h-201q0 135 64.5 216t187.5 89zM381 784v-149 q-123 7 -187.5 88t-64.5 216h201q0 -39 1.5 -62.5t14 -54t35.5 -38.5zM432 635v152q43 20 43 132q0 69 -33 104t-104 38v142q74 5 105.5 35.5t31.5 97.5q0 109 -43 131v151q117 -8 181 -83t64 -197q0 -72 -36 -125.5t-102 -81.5q65 -29 101.5 -85t36.5 -127 q0 -124 -64 -199.5t-181 -84.5z" />
<glyph unicode="&#xbf;" horiz-adv-x="1099" d="M666 -33v257q58 10 91 62t33 128q0 80 -14 128l273 46q23 -86 23 -195q0 -187 -105.5 -303t-300.5 -123zM616 224v-257q-196 8 -308.5 123.5t-112.5 323.5q0 87 37.5 176.5t90.5 163.5t106 144.5t90.5 143t37.5 135.5v71h290v-97q0 -82 -37 -164t-90 -150t-106 -135.5 t-90 -146t-37 -156.5q0 -79 34.5 -123t94.5 -52zM852 1782v-292h-300v292h300z" />
<glyph unicode="&#xc0;" horiz-adv-x="1101" d="M572 1135l-117 647h242l378 -1782h-305zM403 1782l121 -668l-86 -530h182l27 -185h-232l-77 -399h-313zM367 2242l273 -362h-211l-366 362h304z" />
<glyph unicode="&#xc1;" horiz-adv-x="1101" d="M572 1135l-117 647h242l378 -1782h-305zM403 1782l121 -668l-86 -530h182l27 -185h-232l-77 -399h-313zM447 1880l273 362h304l-366 -362h-211z" />
<glyph unicode="&#xc2;" horiz-adv-x="1101" d="M572 1135l-117 647h242l378 -1782h-305zM403 1782l121 -668l-86 -530h182l27 -185h-232l-77 -399h-313zM937 1872h-265l-127 208v204h131q246 -391 261 -412zM368 1872h-265l261 412h131v-204z" />
<glyph unicode="&#xc3;" horiz-adv-x="1101" d="M572 1135l-117 647h242l378 -1782h-305zM403 1782l121 -668l-86 -530h182l27 -185h-232l-77 -399h-313zM360 1920h-155q0 44 3.5 78.5t15 73t31 63.5t54 42t81.5 17q63 0 157.5 -31t117.5 -31q25 0 33 12t9 39h147q-3 -274 -163 -274q-47 0 -142 37t-137 37 q-23 0 -34.5 -10t-14 -20.5t-3.5 -32.5z" />
<glyph unicode="&#xc4;" horiz-adv-x="1101" d="M572 1135l-117 647h242l378 -1782h-305zM403 1782l121 -668l-86 -530h182l27 -185h-232l-77 -399h-313zM190 1970v280h277v-280h-277zM628 1970v280h277v-280h-277z" />
<glyph unicode="&#xc5;" horiz-adv-x="1101" d="M572 1135l-117 647h242l378 -1782h-305zM403 1782l121 -668l-86 -530h182l27 -185h-232l-77 -399h-313zM506 2009v-113q-99 8 -159 72t-60 161q0 98 60 162t159 72v-113q-34 -11 -51 -46t-17 -74t17 -74.5t51 -46.5zM556 1896v112q36 10 52.5 45t16.5 76q0 39 -17 75.5 t-52 46.5v112q99 -8 160.5 -72t61.5 -162q0 -99 -61 -162.5t-161 -70.5z" />
<glyph unicode="&#xc6;" horiz-adv-x="1516" d="M960 1782l-629 -1782h-306l677 1782h258zM1078 0h-296v399h-256l69 195h187v532l232 656h64v-1782zM1128 1561v221h350v-221h-350zM1128 0v221h350v-221h-350zM1128 810v225h234v-225h-234z" />
<glyph unicode="&#xc7;" horiz-adv-x="1151" d="M620 -33v247q45 6 76 35.5t46 77.5t20.5 97t5.5 111v170h309v-137q-8 -584 -457 -601zM620 1567v248q124 -4 214 -49.5t142 -125t76.5 -180.5t24.5 -228v-136h-310v152q0 61 -5 108.5t-19.5 96t-45.5 78.5t-77 36zM570 1815v-247q-162 -18 -162 -288v-779 q0 -270 162 -288v-246q-478 16 -478 611v624q0 597 478 613zM465 -524v139h9q196 -1 196 47q0 9 -3.5 18t-11 17.5t-14.5 16t-19.5 15.5t-20.5 13t-23 12.5l-21 10.5t-21 9.5t-17 7.5v93l147 -1q203 -100 203 -217q0 -181 -404 -181z" />
<glyph unicode="&#xc8;" horiz-adv-x="871" d="M432 0h-316v1782h316v-1782zM482 0v221h351v-221h-351zM482 1561v221h351v-221h-351zM482 810v225h235v-225h-235zM280 2255l273 -362h-211l-366 362h304z" />
<glyph unicode="&#xc9;" horiz-adv-x="871" d="M360 1893l273 362h304l-366 -362h-211zM432 0h-316v1782h316v-1782zM482 0v221h351v-221h-351zM482 1561v221h351v-221h-351zM482 810v225h235v-225h-235z" />
<glyph unicode="&#xca;" horiz-adv-x="871" d="M850 1885h-265l-127 208v204h131q246 -391 261 -412zM281 1885h-265l261 412h131v-204zM432 0h-316v1782h316v-1782zM482 0v221h351v-221h-351zM482 1561v221h351v-221h-351zM482 810v225h235v-225h-235z" />
<glyph unicode="&#xcb;" horiz-adv-x="871" d="M103 1983v280h277v-280h-277zM541 1983v280h277v-280h-277zM432 0h-316v1782h316v-1782zM482 0v221h351v-221h-351zM482 1561v221h351v-221h-351zM482 810v225h235v-225h-235z" />
<glyph unicode="&#xcc;" horiz-adv-x="548" d="M115 0v1782h317v-1782h-317zM93 2242l273 -362h-211l-366 362h304z" />
<glyph unicode="&#xcd;" horiz-adv-x="548" d="M115 0v1782h317v-1782h-317zM173 1880l273 362h304l-366 -362h-211z" />
<glyph unicode="&#xce;" horiz-adv-x="548" d="M115 0v1782h317v-1782h-317zM663 1872h-265l-127 208v204h131q246 -391 261 -412zM94 1872h-265l261 412h131v-204z" />
<glyph unicode="&#xcf;" horiz-adv-x="548" d="M115 0v1782h317v-1782h-317zM-84 1970v280h277v-280h-277zM354 1970v280h277v-280h-277z" />
<glyph unicode="&#xd0;" horiz-adv-x="1150" d="M433 0h-317v809h-95v199h95v774h317v-774h141v-199h-141v-809zM483 0v225h14q142 0 192.5 44t50.5 168v925q0 105 -58 149.5t-188 44.5h-11v226h12q134 0 231 -23t160.5 -66t101 -114.5t53 -158t15.5 -205.5v-615q0 -103 -8.5 -179.5t-31 -147.5t-63 -119t-102.5 -84 t-151.5 -53t-207.5 -17h-9z" />
<glyph unicode="&#xd1;" horiz-adv-x="1183" d="M116 1783h229l43 -104v-1679h-272v1783zM846 0l-42 105v1678h263v-1783h-221zM438 949v609l316 -690v-637zM408 1920h-155q0 44 3.5 78.5t15 73t31 63.5t54 42t81.5 17q63 0 157.5 -31t117.5 -31q25 0 33 12t9 39h147q-3 -274 -163 -274q-47 0 -142 37t-137 37 q-23 0 -34.5 -10t-14 -20.5t-3.5 -32.5z" />
<glyph unicode="&#xd2;" d="M573 1815v-247q-165 -18 -165 -288v-780q0 -269 165 -287v-246q-106 3 -189.5 36t-137.5 87t-89 130.5t-50 162.5t-15 188v631q0 597 481 613zM623 1568v247q483 -16 483 -613v-624q0 -102 -14.5 -188.5t-50 -164t-90 -132.5t-138 -88.5t-190.5 -37.5v246q166 18 166 287 v780q0 270 -166 288zM465 2242l273 -362h-211l-366 362h304z" />
<glyph unicode="&#xd3;" d="M573 1815v-247q-165 -18 -165 -288v-780q0 -269 165 -287v-246q-106 3 -189.5 36t-137.5 87t-89 130.5t-50 162.5t-15 188v631q0 597 481 613zM623 1568v247q483 -16 483 -613v-624q0 -102 -14.5 -188.5t-50 -164t-90 -132.5t-138 -88.5t-190.5 -37.5v246q166 18 166 287 v780q0 270 -166 288zM496 1880l273 362h304l-366 -362h-211z" />
<glyph unicode="&#xd4;" d="M573 1815v-247q-165 -18 -165 -288v-780q0 -269 165 -287v-246q-106 3 -189.5 36t-137.5 87t-89 130.5t-50 162.5t-15 188v631q0 597 481 613zM623 1568v247q483 -16 483 -613v-624q0 -102 -14.5 -188.5t-50 -164t-90 -132.5t-138 -88.5t-190.5 -37.5v246q166 18 166 287 v780q0 270 -166 288zM986 1871h-265l-127 208v204h131q246 -391 261 -412zM417 1871h-265l261 412h131v-204z" />
<glyph unicode="&#xd5;" d="M573 1815v-247q-165 -18 -165 -288v-780q0 -269 165 -287v-246q-106 3 -189.5 36t-137.5 87t-89 130.5t-50 162.5t-15 188v631q0 597 481 613zM623 1568v247q483 -16 483 -613v-624q0 -102 -14.5 -188.5t-50 -164t-90 -132.5t-138 -88.5t-190.5 -37.5v246q166 18 166 287 v780q0 270 -166 288zM409 1920h-155q0 44 3.5 78.5t15 73t31 63.5t54 42t81.5 17q63 0 157.5 -31t117.5 -31q25 0 33 12t9 39h147q-3 -274 -163 -274q-47 0 -142 37t-137 37q-23 0 -34.5 -10t-14 -20.5t-3.5 -32.5z" />
<glyph unicode="&#xd6;" d="M573 1815v-247q-165 -18 -165 -288v-780q0 -269 165 -287v-246q-106 3 -189.5 36t-137.5 87t-89 130.5t-50 162.5t-15 188v631q0 597 481 613zM623 1568v247q483 -16 483 -613v-624q0 -102 -14.5 -188.5t-50 -164t-90 -132.5t-138 -88.5t-190.5 -37.5v246q166 18 166 287 v780q0 270 -166 288zM239 1969v280h277v-280h-277zM677 1969v280h277v-280h-277z" />
<glyph unicode="&#xd7;" horiz-adv-x="794" d="M62 455l193 194l-193 193l133 134l194 -194l194 194l133 -134l-194 -193q124 -127 194 -194l-133 -133l-194 194l-194 -194z" />
<glyph unicode="&#xd8;" d="M476 252l-142 -496l-89 20l74 260q-227 135 -227 535v631q0 613 506 613q92 0 169 -22l-71 -252q-40 28 -98 28q-190 0 -190 -289v-787q0 -173 68 -241zM451 -17l68 239q34 -17 80 -17q190 0 190 288l-1 787q0 146 -51 220l147 523l89 -20l-76 -269q209 -143 209 -532 v-624q0 -104 -15.5 -192t-52.5 -167t-94 -133.5t-145 -86.5t-201 -32q-78 0 -147 16z" />
<glyph unicode="&#xd9;" horiz-adv-x="1225" d="M640 -33v245q33 2 57.5 12t42 24.5t29 43t18.5 55t10 74t4 87.5t1 107v1167h316v-1168q0 -78 -4.5 -142t-18 -131.5t-35.5 -120t-58.5 -100.5t-85.5 -80t-119 -51.5t-157 -21.5zM590 213v-246q-86 2 -156 22t-120 52t-87 80t-59.5 100.5t-36.5 120t-19 131.5t-5 141v1168 h317v-1167q0 -85 3.5 -141.5t13 -108t28 -81t48.5 -48.5t73 -23zM433 2242l273 -362h-211l-366 362h304z" />
<glyph unicode="&#xda;" horiz-adv-x="1225" d="M513 1880l273 362h304l-366 -362h-211zM640 -33v245q33 2 57.5 12t42 24.5t29 43t18.5 55t10 74t4 87.5t1 107v1167h316v-1168q0 -78 -4.5 -142t-18 -131.5t-35.5 -120t-58.5 -100.5t-85.5 -80t-119 -51.5t-157 -21.5zM590 213v-246q-86 2 -156 22t-120 52t-87 80 t-59.5 100.5t-36.5 120t-19 131.5t-5 141v1168h317v-1167q0 -85 3.5 -141.5t13 -108t28 -81t48.5 -48.5t73 -23z" />
<glyph unicode="&#xdb;" horiz-adv-x="1225" d="M1003 1872h-265l-127 208v204h131q246 -391 261 -412zM434 1872h-265l261 412h131v-204zM640 -33v245q33 2 57.5 12t42 24.5t29 43t18.5 55t10 74t4 87.5t1 107v1167h316v-1168q0 -78 -4.5 -142t-18 -131.5t-35.5 -120t-58.5 -100.5t-85.5 -80t-119 -51.5t-157 -21.5z M590 213v-246q-86 2 -156 22t-120 52t-87 80t-59.5 100.5t-36.5 120t-19 131.5t-5 141v1168h317v-1167q0 -85 3.5 -141.5t13 -108t28 -81t48.5 -48.5t73 -23z" />
<glyph unicode="&#xdc;" horiz-adv-x="1225" d="M256 1970v280h277v-280h-277zM694 1970v280h277v-280h-277zM640 -33v245q33 2 57.5 12t42 24.5t29 43t18.5 55t10 74t4 87.5t1 107v1167h316v-1168q0 -78 -4.5 -142t-18 -131.5t-35.5 -120t-58.5 -100.5t-85.5 -80t-119 -51.5t-157 -21.5zM590 213v-246q-86 2 -156 22 t-120 52t-87 80t-59.5 100.5t-36.5 120t-19 131.5t-5 141v1168h317v-1167q0 -85 3.5 -141.5t13 -108t28 -81t48.5 -48.5t73 -23z" />
<glyph unicode="&#xdd;" horiz-adv-x="1002" d="M654 339v-339h-308v581l-344 1201h291zM654 546l-125 506l125 730h346zM398 1880l273 362h304l-366 -362h-211z" />
<glyph unicode="&#xde;" horiz-adv-x="1028" d="M425 0h-317v1782h317v-1782zM475 1313v228h65q439 0 439 -499q0 -271 -119.5 -391t-364.5 -123h-20v226h25q48 0 80.5 12.5t52 33t29.5 59.5t13 80t3 107q0 55 -3 91.5t-13.5 72.5t-29 57t-50.5 33.5t-78 12.5h-29z" />
<glyph unicode="&#xdf;" horiz-adv-x="1162" d="M506 1035l234 -65q158 -45 257.5 -205.5t99.5 -352.5q0 -93 -25 -170.5t-77.5 -141t-144 -99t-215.5 -35.5l-109 1v220h83q69 0 115 35.5t64.5 89.5t18.5 125q0 140 -85 252.5t-216 136.5v209zM770 1015l-235 63q58 26 105 83t72 125t25 132q0 75 -37.5 123.5 t-113.5 53.5l-1 218q102 0 186 -33.5t137 -90t81.5 -128t28.5 -150.5q0 -118 -63.5 -225t-184.5 -171zM536 1814v-219q-110 -21 -110 -238v-1357h-319v1354q0 198 112.5 327t316.5 133z" />
<glyph unicode="&#xe0;" horiz-adv-x="1100" d="M645 1782l-117 -647l-198 -1135h-305l378 1782h242zM576 1114l121 668l378 -1782h-313l-77 399h-232l27 185h182zM416 2242l273 -362h-211l-366 362h304z" />
<glyph unicode="&#xe1;" horiz-adv-x="1100" d="M645 1782l-117 -647l-198 -1135h-305l378 1782h242zM576 1114l121 668l378 -1782h-313l-77 399h-232l27 185h182zM447 1880l273 362h304l-366 -362h-211z" />
<glyph unicode="&#xe2;" horiz-adv-x="1100" d="M645 1782l-117 -647l-198 -1135h-305l378 1782h242zM576 1114l121 668l378 -1782h-313l-77 399h-232l27 185h182zM963 1861h-265l-127 208v204h131q246 -391 261 -412zM394 1861h-265l261 412h131v-204z" />
<glyph unicode="&#xe3;" horiz-adv-x="1100" d="M645 1782l-117 -647l-198 -1135h-305l378 1782h242zM576 1114l121 668l378 -1782h-313l-77 399h-232l27 185h182zM360 1920h-155q0 44 3.5 78.5t15 73t31 63.5t54 42t81.5 17q63 0 157.5 -31t117.5 -31q25 0 33 12t9 39h147q-3 -274 -163 -274q-47 0 -142 37t-137 37 q-23 0 -34.5 -10t-14 -20.5t-3.5 -32.5z" />
<glyph unicode="&#xe4;" horiz-adv-x="1100" d="M645 1782l-117 -647l-198 -1135h-305l378 1782h242zM576 1114l121 668l378 -1782h-313l-77 399h-232l27 185h182zM190 1969v280h277v-280h-277zM628 1969v280h277v-280h-277z" />
<glyph unicode="&#xe5;" horiz-adv-x="1100" d="M645 1782l-117 -647l-198 -1135h-305l378 1782h242zM576 1114l121 668l378 -1782h-313l-77 399h-232l27 185h182zM506 2009v-113q-99 8 -159 72t-60 161q0 98 60 162t159 72v-113q-34 -11 -51 -46t-17 -74t17 -74.5t51 -46.5zM556 1896v112q36 10 52.5 45t16.5 76 q0 39 -17 75.5t-52 46.5v112q99 -8 160.5 -72t61.5 -162q0 -99 -61 -162.5t-161 -70.5z" />
<glyph unicode="&#xe6;" horiz-adv-x="1516" d="M960 1782l-629 -1782h-306l677 1782h258zM1078 0h-296v399h-256l69 195h187v532l232 656h64v-1782zM1128 1561v221h350v-221h-350zM1128 0v221h350v-221h-350zM1128 810v225h234v-225h-234z" />
<glyph unicode="&#xe7;" horiz-adv-x="909" d="M620 -33v247q45 6 76 35.5t46 77.5t20.5 97t5.5 111v170h309v-137q-8 -584 -457 -601zM620 1567v248q124 -4 214 -49.5t142 -125t76.5 -180.5t24.5 -228v-136h-310v152q0 61 -5 108.5t-19.5 96t-45.5 78.5t-77 36zM570 1815v-247q-162 -18 -162 -288v-779 q0 -270 162 -288v-246q-478 16 -478 611v624q0 597 478 613zM334 -524v139h9q196 -1 196 47q0 9 -3.5 18t-11 17.5t-14.5 16t-19.5 15.5t-20.5 13t-23 12.5l-21 10.5t-21 9.5t-17 7.5v93l147 -1q203 -100 203 -217q0 -181 -404 -181z" />
<glyph unicode="&#xe8;" horiz-adv-x="871" d="M432 0h-316v1782h316v-1782zM482 0v221h351v-221h-351zM482 1561v221h351v-221h-351zM482 810v225h235v-225h-235zM329 2256l273 -362h-211l-366 362h304z" />
<glyph unicode="&#xe9;" horiz-adv-x="871" d="M432 0h-316v1782h316v-1782zM482 0v221h351v-221h-351zM482 1561v221h351v-221h-351zM482 810v225h235v-225h-235zM360 1894l273 362h304l-366 -362h-211z" />
<glyph unicode="&#xea;" horiz-adv-x="871" d="M432 0h-316v1782h316v-1782zM482 0v221h351v-221h-351zM482 1561v221h351v-221h-351zM482 810v225h235v-225h-235zM876 1875h-265l-127 208v204h131q246 -391 261 -412zM307 1875h-265l261 412h131v-204z" />
<glyph unicode="&#xeb;" horiz-adv-x="871" d="M432 0h-316v1782h316v-1782zM482 0v221h351v-221h-351zM482 1561v221h351v-221h-351zM482 810v225h235v-225h-235zM103 1983v280h277v-280h-277zM541 1983v280h277v-280h-277z" />
<glyph unicode="&#xec;" horiz-adv-x="548" d="M115 0v1782h317v-1782h-317zM93 2242l273 -362h-211l-366 362h304z" />
<glyph unicode="&#xed;" horiz-adv-x="548" d="M115 0v1782h317v-1782h-317zM173 1880l273 362h304l-366 -362h-211z" />
<glyph unicode="&#xee;" horiz-adv-x="548" d="M115 0v1782h317v-1782h-317zM663 1872h-265l-127 208v204h131q246 -391 261 -412zM94 1872h-265l261 412h131v-204z" />
<glyph unicode="&#xef;" horiz-adv-x="548" d="M115 0v1782h317v-1782h-317zM-84 1970v280h277v-280h-277zM354 1970v280h277v-280h-277z" />
<glyph unicode="&#xf0;" horiz-adv-x="1150" d="M433 0h-317v809h-95v199h95v774h317v-774h141v-199h-141v-809zM483 0v225h14q142 0 192.5 44t50.5 168v925q0 105 -58 149.5t-188 44.5h-11v226h12q134 0 231 -23t160.5 -66t101 -114.5t53 -158t15.5 -205.5v-615q0 -103 -8.5 -179.5t-31 -147.5t-63 -119t-102.5 -84 t-151.5 -53t-207.5 -17h-9z" />
<glyph unicode="&#xf1;" horiz-adv-x="1183" d="M116 1783h229l43 -104v-1679h-272v1783zM846 0l-42 105v1678h263v-1783h-221zM438 949v609l316 -690v-637zM408 1920h-155q0 44 3.5 78.5t15 73t31 63.5t54 42t81.5 17q63 0 157.5 -31t117.5 -31q25 0 33 12t9 39h147q-3 -274 -163 -274q-47 0 -142 37t-137 37 q-23 0 -34.5 -10t-14 -20.5t-3.5 -32.5z" />
<glyph unicode="&#xf2;" d="M573 1815v-247q-165 -18 -165 -288v-780q0 -269 165 -287v-246q-106 3 -189.5 36t-137.5 87t-89 130.5t-50 162.5t-15 188v631q0 597 481 613zM623 1568v247q483 -16 483 -613v-624q0 -102 -14.5 -188.5t-50 -164t-90 -132.5t-138 -88.5t-190.5 -37.5v246q166 18 166 287 v780q0 270 -166 288zM465 2242l273 -362h-211l-366 362h304z" />
<glyph unicode="&#xf3;" d="M573 1815v-247q-165 -18 -165 -288v-780q0 -269 165 -287v-246q-106 3 -189.5 36t-137.5 87t-89 130.5t-50 162.5t-15 188v631q0 597 481 613zM623 1568v247q483 -16 483 -613v-624q0 -102 -14.5 -188.5t-50 -164t-90 -132.5t-138 -88.5t-190.5 -37.5v246q166 18 166 287 v780q0 270 -166 288zM496 1880l273 362h304l-366 -362h-211z" />
<glyph unicode="&#xf4;" d="M573 1815v-247q-165 -18 -165 -288v-780q0 -269 165 -287v-246q-106 3 -189.5 36t-137.5 87t-89 130.5t-50 162.5t-15 188v631q0 597 481 613zM623 1568v247q483 -16 483 -613v-624q0 -102 -14.5 -188.5t-50 -164t-90 -132.5t-138 -88.5t-190.5 -37.5v246q166 18 166 287 v780q0 270 -166 288zM1012 1861h-265l-127 208v204h131q246 -391 261 -412zM443 1861h-265l261 412h131v-204z" />
<glyph unicode="&#xf5;" d="M573 1815v-247q-165 -18 -165 -288v-780q0 -269 165 -287v-246q-106 3 -189.5 36t-137.5 87t-89 130.5t-50 162.5t-15 188v631q0 597 481 613zM623 1568v247q483 -16 483 -613v-624q0 -102 -14.5 -188.5t-50 -164t-90 -132.5t-138 -88.5t-190.5 -37.5v246q166 18 166 287 v780q0 270 -166 288zM409 1920h-155q0 44 3.5 78.5t15 73t31 63.5t54 42t81.5 17q63 0 157.5 -31t117.5 -31q25 0 33 12t9 39h147q-3 -274 -163 -274q-47 0 -142 37t-137 37q-23 0 -34.5 -10t-14 -20.5t-3.5 -32.5z" />
<glyph unicode="&#xf6;" d="M573 1815v-247q-165 -18 -165 -288v-780q0 -269 165 -287v-246q-106 3 -189.5 36t-137.5 87t-89 130.5t-50 162.5t-15 188v631q0 597 481 613zM623 1568v247q483 -16 483 -613v-624q0 -102 -14.5 -188.5t-50 -164t-90 -132.5t-138 -88.5t-190.5 -37.5v246q166 18 166 287 v780q0 270 -166 288zM239 1969v280h277v-280h-277zM677 1969v280h277v-280h-277z" />
<glyph unicode="&#xf7;" horiz-adv-x="691" d="M12 581v199h652v-199h-652zM206 888v262h264v-262h-264zM206 235v263h264v-263h-264z" />
<glyph unicode="&#xf8;" d="M476 252l-142 -496l-89 20l74 260q-227 135 -227 535v631q0 613 506 613q92 0 169 -22l-71 -252q-40 28 -98 28q-190 0 -190 -289v-787q0 -173 68 -241zM451 -17l68 239q34 -17 80 -17q190 0 190 288l-1 787q0 146 -51 220l147 523l89 -20l-76 -269q209 -143 209 -532 v-624q0 -104 -15.5 -192t-52.5 -167t-94 -133.5t-145 -86.5t-201 -32q-78 0 -147 16z" />
<glyph unicode="&#xf9;" horiz-adv-x="1223" d="M639 -33v245q33 2 57.5 12t42 24.5t29 43t18.5 55t10 74t4 87.5t1 107v1167h316v-1168q0 -78 -4.5 -142t-18 -131.5t-35.5 -120t-58.5 -100.5t-85.5 -80t-119 -51.5t-157 -21.5zM589 213v-246q-86 2 -156 22t-120 52t-87 80t-59.5 100.5t-36.5 120t-19 131.5t-5 141v1168 h317v-1167q0 -85 3.5 -141.5t13 -108t28 -81t48.5 -48.5t73 -23zM481 2242l273 -362h-211l-366 362h304z" />
<glyph unicode="&#xfa;" horiz-adv-x="1223" d="M639 -33v245q33 2 57.5 12t42 24.5t29 43t18.5 55t10 74t4 87.5t1 107v1167h316v-1168q0 -78 -4.5 -142t-18 -131.5t-35.5 -120t-58.5 -100.5t-85.5 -80t-119 -51.5t-157 -21.5zM589 213v-246q-86 2 -156 22t-120 52t-87 80t-59.5 100.5t-36.5 120t-19 131.5t-5 141v1168 h317v-1167q0 -85 3.5 -141.5t13 -108t28 -81t48.5 -48.5t73 -23zM512 1880l273 362h304l-366 -362h-211z" />
<glyph unicode="&#xfb;" horiz-adv-x="1223" d="M639 -33v245q33 2 57.5 12t42 24.5t29 43t18.5 55t10 74t4 87.5t1 107v1167h316v-1168q0 -78 -4.5 -142t-18 -131.5t-35.5 -120t-58.5 -100.5t-85.5 -80t-119 -51.5t-157 -21.5zM589 213v-246q-86 2 -156 22t-120 52t-87 80t-59.5 100.5t-36.5 120t-19 131.5t-5 141v1168 h317v-1167q0 -85 3.5 -141.5t13 -108t28 -81t48.5 -48.5t73 -23zM1002 1871h-265l-127 208v204h131q246 -391 261 -412zM433 1871h-265l261 412h131v-204z" />
<glyph unicode="&#xfc;" horiz-adv-x="1223" d="M639 -33v245q33 2 57.5 12t42 24.5t29 43t18.5 55t10 74t4 87.5t1 107v1167h316v-1168q0 -78 -4.5 -142t-18 -131.5t-35.5 -120t-58.5 -100.5t-85.5 -80t-119 -51.5t-157 -21.5zM589 213v-246q-86 2 -156 22t-120 52t-87 80t-59.5 100.5t-36.5 120t-19 131.5t-5 141v1168 h317v-1167q0 -85 3.5 -141.5t13 -108t28 -81t48.5 -48.5t73 -23zM255 1969v280h277v-280h-277zM693 1969v280h277v-280h-277z" />
<glyph unicode="&#xfd;" horiz-adv-x="1002" d="M654 339v-339h-308v581l-344 1201h291zM654 546l-125 506l125 730h346zM398 1880l273 362h304l-366 -362h-211z" />
<glyph unicode="&#xfe;" horiz-adv-x="1028" d="M425 0h-317v1782h317v-1782zM475 1313v228h65q439 0 439 -499q0 -271 -119.5 -391t-364.5 -123h-20v226h25q48 0 80.5 12.5t52 33t29.5 59.5t13 80t3 107q0 55 -3 91.5t-13.5 72.5t-29 57t-50.5 33.5t-78 12.5h-29z" />
<glyph unicode="&#xff;" horiz-adv-x="1002" d="M654 339v-339h-308v581l-344 1201h291zM654 546l-125 506l125 730h346zM141 1969v280h277v-280h-277zM579 1969v280h277v-280h-277z" />
<glyph unicode="&#x108;" horiz-adv-x="1152" d="M620 -33v247q45 6 76 35.5t46 77.5t20.5 97t5.5 111v170h309v-137q-8 -584 -457 -601zM620 1567v248q124 -4 214 -49.5t142 -125t76.5 -180.5t24.5 -228v-136h-310v152q0 61 -5 108.5t-19.5 96t-45.5 78.5t-77 36zM570 1815v-247q-162 -18 -162 -288v-779 q0 -270 162 -288v-246q-478 16 -478 611v624q0 597 478 613zM1007 1861h-265l-127 208v204h131q246 -391 261 -412zM438 1861h-265l261 412h131v-204z" />
<glyph unicode="&#x109;" horiz-adv-x="1152" d="M620 -33v247q45 6 76 35.5t46 77.5t20.5 97t5.5 111v170h309v-137q-8 -584 -457 -601zM620 1567v248q124 -4 214 -49.5t142 -125t76.5 -180.5t24.5 -228v-136h-310v152q0 61 -5 108.5t-19.5 96t-45.5 78.5t-77 36zM570 1815v-247q-162 -18 -162 -288v-779 q0 -270 162 -288v-246q-478 16 -478 611v624q0 597 478 613zM1007 1861h-265l-127 208v204h131q246 -391 261 -412zM438 1861h-265l261 412h131v-204z" />
<glyph unicode="&#x126;" horiz-adv-x="1170" d="M473 1334v110h271v338h319v-1782h-319v810h-271v225h271v299h-271zM423 0h-316v1782h316v-1782z" />
<glyph unicode="&#x127;" horiz-adv-x="1170" d="M473 1334v110h271v338h319v-1782h-319v810h-271v225h271v299h-271zM423 0h-316v1782h316v-1782z" />
<glyph unicode="&#x128;" horiz-adv-x="548" d="M115 0v1782h317v-1782h-317zM86 1920h-155q0 44 3.5 78.5t15 73t31 63.5t54 42t81.5 17q63 0 157.5 -31t117.5 -31q25 0 33 12t9 39h147q-3 -274 -163 -274q-47 0 -142 37t-137 37q-23 0 -34.5 -10t-14 -20.5t-3.5 -32.5z" />
<glyph unicode="&#x129;" horiz-adv-x="548" d="M115 0v1782h317v-1782h-317zM86 1920h-155q0 44 3.5 78.5t15 73t31 63.5t54 42t81.5 17q63 0 157.5 -31t117.5 -31q25 0 33 12t9 39h147q-3 -274 -163 -274q-47 0 -142 37t-137 37q-23 0 -34.5 -10t-14 -20.5t-3.5 -32.5z" />
<glyph unicode="&#x12e;" horiz-adv-x="548" d="M115 0v1782h317v-1782h-317zM264 -101h152q-61 -124 -61 -198q0 -26 7 -45.5t24 -31t31.5 -18.5t41.5 -9.5t42 -3t46 -0.5l-16 -140q-7 0 -20 -0.5t-19 -0.5q-54 0 -96.5 3.5t-89 16.5t-77.5 34.5t-51 59.5t-20 91q0 115 106 242z" />
<glyph unicode="&#x12f;" horiz-adv-x="572" d="M117 0v1782h317v-1782h-317zM267 -95h152q-61 -124 -61 -198q0 -26 7 -45.5t24 -31t31.5 -18.5t41.5 -9.5t42 -3t46 -0.5l-16 -140q-6 0 -19 -0.5t-20 -0.5q-54 0 -96.5 3.5t-89 16.5t-77.5 34.5t-51 59.5t-20 91q0 115 106 242z" />
<glyph unicode="&#x130;" horiz-adv-x="444" d="M115 0v1782h317v-1782h-317zM152 1996v287h292v-287h-292z" />
<glyph unicode="&#x131;" horiz-adv-x="548" d="M115 0v1782h317v-1782h-317z" />
<glyph unicode="&#x132;" horiz-adv-x="1200" d="M115 0v1782h317v-1782h-317zM604 -26v224q78 0 113 16t50 63.5t15 151.5v1353h316v-1355q0 -98 -8.5 -164.5t-33 -125t-69 -92t-115.5 -52.5t-172 -19h-96z" />
<glyph unicode="&#x133;" horiz-adv-x="980" d="M117 0v1782h317v-1782h-317zM530 -26v224q78 0 113 16t50 63.5t15 151.5v1353h316v-1355q0 -98 -8.5 -164.5t-33 -125t-69 -92t-115.5 -52.5t-172 -19h-96z" />
<glyph unicode="&#x134;" horiz-adv-x="612" d="M3 -26v224q78 0 113 16t50 63.5t15 151.5v1353h316v-1355q0 -98 -8.5 -164.5t-33 -125t-69 -92t-115.5 -52.5t-172 -19h-96zM752 1861h-265l-127 208v204h131q246 -391 261 -412zM183 1861h-265l261 412h131v-204z" />
<glyph unicode="&#x135;" horiz-adv-x="612" d="M3 -26v224q78 0 113 16t50 63.5t15 151.5v1353h316v-1355q0 -98 -8.5 -164.5t-33 -125t-69 -92t-115.5 -52.5t-172 -19h-96zM752 1861h-265l-127 208v204h131q246 -391 261 -412zM183 1861h-265l261 412h131v-204z" />
<glyph unicode="&#x137;" horiz-adv-x="1147" d="M482 857v237l272 688h351l-364 -801l403 -981h-329zM432 0h-316v1782h316v-1782zM492 -613l-37 141q55 6 70 26t16 79h-114v287h292q0 -25 0.5 -70.5t0.5 -66.5q0 -81 -4 -135t-17 -107.5t-37.5 -84t-66.5 -49.5t-103 -20z" />
<glyph unicode="&#x138;" horiz-adv-x="1147" d="M482 857v237l272 688h351l-364 -801l403 -981h-329zM432 0h-316v1782h316v-1782z" />
<glyph unicode="&#x13f;" horiz-adv-x="953" d="M431 0h-316v1782h316v-1782zM481 0v221h336v-221h-336zM590 685v284h292v-284h-292z" />
<glyph unicode="&#x140;" horiz-adv-x="953" d="M431 0h-316v1782h316v-1782zM481 0v221h336v-221h-336zM590 685v284h292v-284h-292z" />
<glyph unicode="&#x141;" horiz-adv-x="849" d="M433 0h-317v881l-95 -36v168l95 36v733h317v-614l256 97v-168l-256 -97v-1000zM483 0v221h335v-221h-335z" />
<glyph unicode="&#x142;" horiz-adv-x="849" d="M433 0h-317v881l-95 -36v168l95 36v733h317v-614l256 97v-168l-256 -97v-1000zM483 0v221h335v-221h-335z" />
<glyph unicode="&#x143;" horiz-adv-x="1183" d="M116 1783h229l43 -104v-1679h-272v1783zM846 0l-42 105v1678h263v-1783h-221zM438 949v609l316 -690v-637zM495 1880l273 362h304l-366 -362h-211z" />
<glyph unicode="&#x144;" horiz-adv-x="1183" d="M116 1783h229l43 -104v-1679h-272v1783zM846 0l-42 105v1678h263v-1783h-221zM438 949v609l316 -690v-637zM495 1880l273 362h304l-366 -362h-211z" />
<glyph unicode="&#x152;" horiz-adv-x="1543" d="M738 224v-224h-140q-507 0 -507 584v605q0 102 15.5 187t52 161.5t93.5 129.5t145 84t201 31h140v-231h-140q-190 0 -190 -284v-761q0 -282 190 -282h140zM1105 0h-317v1782h317v-747h284v-225h-284v-810zM1155 1561v221h350v-221h-350zM1155 0v221h350v-221h-350z" />
<glyph unicode="&#x153;" horiz-adv-x="1543" d="M738 224v-224h-140q-507 0 -507 584v605q0 102 15.5 187t52 161.5t93.5 129.5t145 84t201 31h140v-231h-140q-190 0 -190 -284v-761q0 -282 190 -282h140zM1105 0h-317v1782h317v-747h284v-225h-284v-810zM1155 1561v221h350v-221h-350zM1155 0v221h350v-221h-350z" />
<glyph unicode="&#x154;" horiz-adv-x="1119" d="M482 831v200h99q38 0 68 19t46.5 47.5t26.5 66t13.5 68t3.5 61.5q0 40 -5.5 78.5t-19.5 81.5t-44.5 69t-74.5 26h-113v234h44q528 0 528 -467q0 -42 -1 -71t-6 -70t-13.5 -71t-25 -66t-40 -63t-58.5 -53.5t-80 -46.5l253 -874h-323l-207 831h-71zM432 0h-316v1782h316 v-1782zM410 1880l273 362h304l-366 -362h-211z" />
<glyph unicode="&#x156;" horiz-adv-x="1122" d="M478 -613l-37 141q55 6 70 26t16 79h-114v287h292q0 -25 0.5 -70.5t0.5 -66.5q0 -81 -4 -135t-17 -107.5t-37.5 -84t-66.5 -49.5t-103 -20zM482 831v200h99q38 0 68 19t46.5 47.5t26.5 66t13.5 68t3.5 61.5q0 40 -5.5 78.5t-19.5 81.5t-44.5 69t-74.5 26h-113v234h44 q528 0 528 -467q0 -42 -1 -71t-6 -70t-13.5 -71t-25 -66t-40 -63t-58.5 -53.5t-80 -46.5l253 -874h-323l-207 831h-71zM432 0h-316v1782h316v-1782z" />
<glyph unicode="&#x157;" horiz-adv-x="1122" d="M478 -613l-37 141q55 6 70 26t16 79h-114v287h292q0 -25 0.5 -70.5t0.5 -66.5q0 -81 -4 -135t-17 -107.5t-37.5 -84t-66.5 -49.5t-103 -20zM482 831v200h99q38 0 68 19t46.5 47.5t26.5 66t13.5 68t3.5 61.5q0 40 -5.5 78.5t-19.5 81.5t-44.5 69t-74.5 26h-113v234h44 q528 0 528 -467q0 -42 -1 -71t-6 -70t-13.5 -71t-25 -66t-40 -63t-58.5 -53.5t-80 -46.5l253 -874h-323l-207 831h-71zM432 0h-316v1782h316v-1782z" />
<glyph unicode="&#x158;" horiz-adv-x="1119" d="M482 831v200h99q38 0 68 19t46.5 47.5t26.5 66t13.5 68t3.5 61.5q0 40 -5.5 78.5t-19.5 81.5t-44.5 69t-74.5 26h-113v234h44q528 0 528 -467q0 -42 -1 -71t-6 -70t-13.5 -71t-25 -66t-40 -63t-58.5 -53.5t-80 -46.5l253 -874h-323l-207 831h-71zM432 0h-316v1782h316 v-1782zM92 2273h265l127 -208v-204h-131q-246 391 -261 412zM661 2273h265l-261 -412h-131v204z" />
<glyph unicode="&#x159;" horiz-adv-x="1119" d="M482 831v200h99q38 0 68 19t46.5 47.5t26.5 66t13.5 68t3.5 61.5q0 40 -5.5 78.5t-19.5 81.5t-44.5 69t-74.5 26h-113v234h44q528 0 528 -467q0 -42 -1 -71t-6 -70t-13.5 -71t-25 -66t-40 -63t-58.5 -53.5t-80 -46.5l253 -874h-323l-207 831h-71zM432 0h-316v1782h316 v-1782zM92 2273h265l127 -208v-204h-131q-246 391 -261 412zM661 2273h265l-261 -412h-131v204z" />
<glyph unicode="&#x160;" horiz-adv-x="1018" d="M187 2304h265l127 -208v-204h-131q-246 391 -261 412zM756 2304h265l-261 -412h-131v204zM555 1569v247q183 -4 306.5 -130t131.5 -313v-37l-321 -50q0 9 1 29t1 31q-4 81 -32.5 144t-86.5 79zM518 214v-248q-88 5 -162 36t-125.5 80.5t-88.5 116t-56.5 140t-25.5 154.5 l317 64q10 -308 141 -343zM612 1037l-213 -213l-72 68q-49 43 -79.5 72.5t-70 77.5t-61.5 91.5t-38 104t-16 127.5q0 198 121 318t322 132v-243q-64 -6 -98 -54.5t-34 -118.5q0 -84 39.5 -150t111.5 -130q18 -16 88 -82zM435 791l212 211l37 -33q74 -69 124 -125t97 -128 t70.5 -154.5t23.5 -176.5q0 -183 -124 -298.5t-307 -121.5v244q124 8 124 163q0 181 -217 382z" />
<glyph unicode="&#x161;" horiz-adv-x="1054" d="M557 1569v247q183 -4 306.5 -130t131.5 -313v-37l-321 -50q0 9 1 29t1 31q-4 81 -32.5 144t-86.5 79zM520 214v-248q-88 5 -162 36t-125.5 80.5t-88.5 116t-56.5 140t-25.5 154.5l317 64q10 -308 141 -343zM614 1037l-213 -213l-72 68q-49 43 -79.5 72.5t-70 77.5 t-61.5 91.5t-38 104t-16 127.5q0 198 121 318t322 132v-243q-64 -6 -98 -54.5t-34 -118.5q0 -84 39.5 -150t111.5 -130q18 -16 88 -82zM437 791l212 211l37 -33q74 -69 124 -125t97 -128t70.5 -154.5t23.5 -176.5q0 -183 -124 -298.5t-307 -121.5v244q124 8 124 163 q0 181 -217 382zM111 2272h265l127 -208v-204h-131q-246 391 -261 412zM680 2272h265l-261 -412h-131v204z" />
<glyph unicode="&#x16a;" horiz-adv-x="1223" d="M639 -33v245q33 2 57.5 12t42 24.5t29 43t18.5 55t10 74t4 87.5t1 107v1167h316v-1168q0 -78 -4.5 -142t-18 -131.5t-35.5 -120t-58.5 -100.5t-85.5 -80t-119 -51.5t-157 -21.5zM589 213v-246q-86 2 -156 22t-120 52t-87 80t-59.5 100.5t-36.5 120t-19 131.5t-5 141v1168 h317v-1167q0 -85 3.5 -141.5t13 -108t28 -81t48.5 -48.5t73 -23zM365 1941v176h493v-176h-493z" />
<glyph unicode="&#x16b;" horiz-adv-x="1223" d="M639 -33v245q33 2 57.5 12t42 24.5t29 43t18.5 55t10 74t4 87.5t1 107v1167h316v-1168q0 -78 -4.5 -142t-18 -131.5t-35.5 -120t-58.5 -100.5t-85.5 -80t-119 -51.5t-157 -21.5zM589 213v-246q-86 2 -156 22t-120 52t-87 80t-59.5 100.5t-36.5 120t-19 131.5t-5 141v1168 h317v-1167q0 -85 3.5 -141.5t13 -108t28 -81t48.5 -48.5t73 -23zM365 1941v176h493v-176h-493z" />
<glyph unicode="&#x172;" horiz-adv-x="1223" d="M639 -33v245q33 2 57.5 12t42 24.5t29 43t18.5 55t10 74t4 87.5t1 107v1167h316v-1168q0 -78 -4.5 -142t-18 -131.5t-35.5 -120t-58.5 -100.5t-85.5 -80t-119 -51.5t-157 -21.5zM589 213v-246q-86 2 -156 22t-120 52t-87 80t-59.5 100.5t-36.5 120t-19 131.5t-5 141v1168 h317v-1167q0 -85 3.5 -141.5t13 -108t28 -81t48.5 -48.5t73 -23zM568 -101h152q-61 -124 -61 -198q0 -26 7 -45.5t24 -31t31.5 -18.5t41.5 -9.5t42 -3t46 -0.5l-16 -140q-7 0 -20 -0.5t-19 -0.5q-54 0 -96.5 3.5t-89 16.5t-77.5 34.5t-51 59.5t-20 91q0 115 106 242z" />
<glyph unicode="&#x173;" horiz-adv-x="1223" d="M639 -33v245q33 2 57.5 12t42 24.5t29 43t18.5 55t10 74t4 87.5t1 107v1167h316v-1168q0 -78 -4.5 -142t-18 -131.5t-35.5 -120t-58.5 -100.5t-85.5 -80t-119 -51.5t-157 -21.5zM589 213v-246q-86 2 -156 22t-120 52t-87 80t-59.5 100.5t-36.5 120t-19 131.5t-5 141v1168 h317v-1167q0 -85 3.5 -141.5t13 -108t28 -81t48.5 -48.5t73 -23zM568 -101h152q-61 -124 -61 -198q0 -26 7 -45.5t24 -31t31.5 -18.5t41.5 -9.5t42 -3t46 -0.5l-16 -140q-7 0 -20 -0.5t-19 -0.5q-54 0 -96.5 3.5t-89 16.5t-77.5 34.5t-51 59.5t-20 91q0 115 106 242z" />
<glyph unicode="&#x178;" horiz-adv-x="1002" d="M654 339v-339h-308v581l-344 1201h291zM654 546l-125 506l125 730h346zM141 1969v280h277v-280h-277zM579 1969v280h277v-280h-277z" />
<glyph unicode="&#x17b;" horiz-adv-x="975" d="M357 0l84 221h452v-221h-536zM611 1782l-84 -222h-393v222h477zM77 219l588 1563h228v-210l-589 -1572h-227v219zM341 1973v287h292v-287h-292z" />
<glyph unicode="&#x17c;" horiz-adv-x="975" d="M357 0l84 221h452v-221h-536zM611 1782l-84 -222h-393v222h477zM77 219l588 1563h228v-210l-589 -1572h-227v219zM341 1973v287h292v-287h-292z" />
<glyph unicode="&#x17d;" horiz-adv-x="975" d="M357 0l84 221h452v-221h-536zM611 1782l-84 -222h-393v222h477zM77 219l588 1563h228v-210l-589 -1572h-227v219zM70 2283h265l127 -208v-204h-131q-246 391 -261 412zM639 2283h265l-261 -412h-131v204z" />
<glyph unicode="&#x17e;" horiz-adv-x="975" d="M357 0l84 221h452v-221h-536zM611 1782l-84 -222h-393v222h477zM77 219l588 1563h228v-210l-589 -1572h-227v219zM70 2283h265l127 -208v-204h-131q-246 391 -261 412zM639 2283h265l-261 -412h-131v204z" />
<glyph unicode="&#x192;" horiz-adv-x="571" d="M-14 -381v109q24 -6 74 -6q33 0 56 10t34.5 22t17.5 36t6.5 38.5t0.5 43.5v8v1234h-167v84h167v169q0 41 2.5 72.5t15 74t34.5 70.5t64 48t101 20q69 0 122 -13v-109q-24 6 -74 6q-33 0 -56 -10t-34.5 -22t-17.5 -36t-6.5 -38.5t-0.5 -43.5v-8v-180h192v-84h-192v-1224 q0 -41 -2.5 -72t-15 -74t-34.5 -70.5t-64 -47.5t-101 -20q-69 0 -122 13z" />
<glyph unicode="&#x1f2;" horiz-adv-x="1918" d="M1447 0l84 221h452v-221h-536zM1701 1782l-84 -222h-393v222h477zM1167 219l588 1563h228v-210l-589 -1572h-227v219zM482 0v225h9q146 0 197 43.5t51 168.5v925q0 105 -57 149t-186 45h-14v226h12q112 0 197.5 -15t147.5 -47.5t104 -77.5t67 -111t35.5 -141.5 t10.5 -174.5v-615q0 -88 -6 -156t-22 -132.5t-43.5 -111t-70 -86t-102 -63.5t-139.5 -37.5t-182 -13.5h-9zM432 0h-316v1782h316v-1782z" />
<glyph unicode="&#x20b;" horiz-adv-x="548" d="M115 0v1782h317v-1782h-317zM177 1910h-158q1 119 75 186t183 67t183 -67t75 -186h-158q-4 57 -29.5 95.5t-70.5 38.5t-70.5 -38.5t-29.5 -95.5z" />
<glyph unicode="&#x20c;" d="M573 1815v-247q-165 -18 -165 -288v-780q0 -269 165 -287v-246q-106 3 -189.5 36t-137.5 87t-89 130.5t-50 162.5t-15 188v631q0 597 481 613zM623 1568v247q483 -16 483 -613v-624q0 -102 -14.5 -188.5t-50 -164t-90 -132.5t-138 -88.5t-190.5 -37.5v246q166 18 166 287 v780q0 270 -166 288zM704 1908l-213 413h255l130 -413h-172zM405 1908l-213 413h257l130 -413h-174z" />
<glyph unicode="&#x20d;" d="M573 1815v-247q-165 -18 -165 -288v-780q0 -269 165 -287v-246q-106 3 -189.5 36t-137.5 87t-89 130.5t-50 162.5t-15 188v631q0 597 481 613zM623 1568v247q483 -16 483 -613v-624q0 -102 -14.5 -188.5t-50 -164t-90 -132.5t-138 -88.5t-190.5 -37.5v246q166 18 166 287 v780q0 270 -166 288zM704 1908l-213 413h255l130 -413h-172zM405 1908l-213 413h257l130 -413h-174z" />
<glyph unicode="&#x20e;" d="M573 1815v-247q-165 -18 -165 -288v-780q0 -269 165 -287v-246q-106 3 -189.5 36t-137.5 87t-89 130.5t-50 162.5t-15 188v631q0 597 481 613zM623 1568v247q483 -16 483 -613v-624q0 -102 -14.5 -188.5t-50 -164t-90 -132.5t-138 -88.5t-190.5 -37.5v246q166 18 166 287 v780q0 270 -166 288zM500 1910h-158q1 119 75 186t183 67t183 -67t75 -186h-158q-4 57 -29.5 95.5t-70.5 38.5t-70.5 -38.5t-29.5 -95.5z" />
<glyph unicode="&#x20f;" d="M573 1815v-247q-165 -18 -165 -288v-780q0 -269 165 -287v-246q-106 3 -189.5 36t-137.5 87t-89 130.5t-50 162.5t-15 188v631q0 597 481 613zM623 1568v247q483 -16 483 -613v-624q0 -102 -14.5 -188.5t-50 -164t-90 -132.5t-138 -88.5t-190.5 -37.5v246q166 18 166 287 v780q0 270 -166 288zM500 1910h-158q1 119 75 186t183 67t183 -67t75 -186h-158q-4 57 -29.5 95.5t-70.5 38.5t-70.5 -38.5t-29.5 -95.5z" />
<glyph unicode="&#x210;" horiz-adv-x="1119" d="M482 831v200h99q38 0 68 19t46.5 47.5t26.5 66t13.5 68t3.5 61.5q0 40 -5.5 78.5t-19.5 81.5t-44.5 69t-74.5 26h-113v234h44q528 0 528 -467q0 -42 -1 -71t-6 -70t-13.5 -71t-25 -66t-40 -63t-58.5 -53.5t-80 -46.5l253 -874h-323l-207 831h-71zM432 0h-316v1782h316 v-1782zM618 1908l-213 413h255l130 -413h-172zM319 1908l-213 413h257l130 -413h-174z" />
<glyph unicode="&#x211;" horiz-adv-x="1119" d="M482 831v200h99q38 0 68 19t46.5 47.5t26.5 66t13.5 68t3.5 61.5q0 40 -5.5 78.5t-19.5 81.5t-44.5 69t-74.5 26h-113v234h44q528 0 528 -467q0 -42 -1 -71t-6 -70t-13.5 -71t-25 -66t-40 -63t-58.5 -53.5t-80 -46.5l253 -874h-323l-207 831h-71zM432 0h-316v1782h316 v-1782zM618 1908l-213 413h255l130 -413h-172zM319 1908l-213 413h257l130 -413h-174z" />
<glyph unicode="&#x212;" horiz-adv-x="1119" d="M482 831v200h99q38 0 68 19t46.5 47.5t26.5 66t13.5 68t3.5 61.5q0 40 -5.5 78.5t-19.5 81.5t-44.5 69t-74.5 26h-113v234h44q528 0 528 -467q0 -42 -1 -71t-6 -70t-13.5 -71t-25 -66t-40 -63t-58.5 -53.5t-80 -46.5l253 -874h-323l-207 831h-71zM432 0h-316v1782h316 v-1782zM414 1910h-158q1 119 75 186t183 67t183 -67t75 -186h-158q-4 57 -29.5 95.5t-70.5 38.5t-70.5 -38.5t-29.5 -95.5z" />
<glyph unicode="&#x213;" horiz-adv-x="1119" d="M482 831v200h99q38 0 68 19t46.5 47.5t26.5 66t13.5 68t3.5 61.5q0 40 -5.5 78.5t-19.5 81.5t-44.5 69t-74.5 26h-113v234h44q528 0 528 -467q0 -42 -1 -71t-6 -70t-13.5 -71t-25 -66t-40 -63t-58.5 -53.5t-80 -46.5l253 -874h-323l-207 831h-71zM432 0h-316v1782h316 v-1782zM414 1910h-158q1 119 75 186t183 67t183 -67t75 -186h-158q-4 57 -29.5 95.5t-70.5 38.5t-70.5 -38.5t-29.5 -95.5z" />
<glyph unicode="&#x214;" horiz-adv-x="1223" d="M639 -33v245q33 2 57.5 12t42 24.5t29 43t18.5 55t10 74t4 87.5t1 107v1167h316v-1168q0 -78 -4.5 -142t-18 -131.5t-35.5 -120t-58.5 -100.5t-85.5 -80t-119 -51.5t-157 -21.5zM589 213v-246q-86 2 -156 22t-120 52t-87 80t-59.5 100.5t-36.5 120t-19 131.5t-5 141v1168 h317v-1167q0 -85 3.5 -141.5t13 -108t28 -81t48.5 -48.5t73 -23zM720 1908l-213 413h255l130 -413h-172zM421 1908l-213 413h257l130 -413h-174z" />
<glyph unicode="&#x215;" horiz-adv-x="1223" d="M639 -33v245q33 2 57.5 12t42 24.5t29 43t18.5 55t10 74t4 87.5t1 107v1167h316v-1168q0 -78 -4.5 -142t-18 -131.5t-35.5 -120t-58.5 -100.5t-85.5 -80t-119 -51.5t-157 -21.5zM589 213v-246q-86 2 -156 22t-120 52t-87 80t-59.5 100.5t-36.5 120t-19 131.5t-5 141v1168 h317v-1167q0 -85 3.5 -141.5t13 -108t28 -81t48.5 -48.5t73 -23zM720 1908l-213 413h255l130 -413h-172zM421 1908l-213 413h257l130 -413h-174z" />
<glyph unicode="&#x216;" horiz-adv-x="1223" d="M639 -33v245q33 2 57.5 12t42 24.5t29 43t18.5 55t10 74t4 87.5t1 107v1167h316v-1168q0 -78 -4.5 -142t-18 -131.5t-35.5 -120t-58.5 -100.5t-85.5 -80t-119 -51.5t-157 -21.5zM589 213v-246q-86 2 -156 22t-120 52t-87 80t-59.5 100.5t-36.5 120t-19 131.5t-5 141v1168 h317v-1167q0 -85 3.5 -141.5t13 -108t28 -81t48.5 -48.5t73 -23zM516 1910h-158q1 119 75 186t183 67t183 -67t75 -186h-158q-4 57 -29.5 95.5t-70.5 38.5t-70.5 -38.5t-29.5 -95.5z" />
<glyph unicode="&#x217;" horiz-adv-x="1223" d="M639 -33v245q33 2 57.5 12t42 24.5t29 43t18.5 55t10 74t4 87.5t1 107v1167h316v-1168q0 -78 -4.5 -142t-18 -131.5t-35.5 -120t-58.5 -100.5t-85.5 -80t-119 -51.5t-157 -21.5zM589 213v-246q-86 2 -156 22t-120 52t-87 80t-59.5 100.5t-36.5 120t-19 131.5t-5 141v1168 h317v-1167q0 -85 3.5 -141.5t13 -108t28 -81t48.5 -48.5t73 -23zM516 1910h-158q1 119 75 186t183 67t183 -67t75 -186h-158q-4 57 -29.5 95.5t-70.5 38.5t-70.5 -38.5t-29.5 -95.5z" />
<glyph unicode="&#x237;" horiz-adv-x="612" d="M3 -26v224q78 0 113 16t50 63.5t15 151.5v1353h316v-1355q0 -98 -8.5 -164.5t-33 -125t-69 -92t-115.5 -52.5t-172 -19h-96z" />
<glyph unicode="&#x2c6;" horiz-adv-x="805" d="M819 1370h-265l-127 208v204h131q246 -391 261 -412zM250 1370h-265l261 412h131v-204z" />
<glyph unicode="&#x2c7;" horiz-adv-x="805" d="M-15 1782h265l127 -208v-204h-131q-246 391 -261 412zM554 1782h265l-261 -412h-131v204z" />
<glyph unicode="&#x2d8;" horiz-adv-x="730" d="M94 1663h159q3 -57 28.5 -96t70.5 -39q46 0 71.5 39t28.5 96h159q-1 -118 -75.5 -185.5t-183.5 -67.5t-183 67.5t-75 185.5z" />
<glyph unicode="&#x2d9;" horiz-adv-x="541" d="M139 1472v287h292v-287h-292z" />
<glyph unicode="&#x2da;" horiz-adv-x="730" d="M333 1518v-113q-99 8 -159 72t-60 161q0 98 60 162t159 72v-113q-34 -11 -51 -46t-17 -74t17 -74.5t51 -46.5zM383 1405v112q36 10 52.5 45t16.5 76q0 39 -17 75.5t-52 46.5v112q99 -8 160.5 -72t61.5 -162q0 -99 -61 -162.5t-161 -70.5z" />
<glyph unicode="&#x2db;" horiz-adv-x="553" d="M234 -95h152q-61 -124 -61 -198q0 -26 7 -45.5t24 -31t31.5 -18.5t41.5 -9.5t42 -3t46 -0.5l-16 -140q-7 0 -20 -0.5t-19 -0.5q-54 0 -96.5 3.5t-89 16.5t-77.5 34.5t-51 59.5t-20 91q0 115 106 242z" />
<glyph unicode="&#x2dc;" horiz-adv-x="867" d="M272 1418h-155q0 44 3.5 78.5t15 73t31 63.5t54 42t81.5 17q63 0 157.5 -31t117.5 -31q25 0 33 12t9 39h147q-3 -274 -163 -274q-47 0 -142 37t-137 37q-23 0 -34.5 -10t-14 -20.5t-3.5 -32.5z" />
<glyph unicode="&#x2dd;" horiz-adv-x="911" d="M110 1406l130 413h256l-213 -413h-173zM407 1406l130 413h257l-213 -413h-174z" />
<glyph unicode="&#x307;" horiz-adv-x="410" d="M113 1380v179h184v-179h-184z" />
<glyph unicode="&#x30f;" horiz-adv-x="913" d="M615 1406l-213 413h255l130 -413h-172zM316 1406l-213 413h257l130 -413h-174z" />
<glyph unicode="&#x311;" horiz-adv-x="730" d="M252 1410h-158q1 119 75 186t183 67t183 -67t75 -186h-158q-4 57 -29.5 95.5t-70.5 38.5t-70.5 -38.5t-29.5 -95.5z" />
<glyph unicode="&#x326;" horiz-adv-x="1122" d="M478 -613l-37 141q55 6 70 26t16 79h-114v287h292q0 -25 0.5 -70.5t0.5 -66.5q0 -81 -4 -135t-17 -107.5t-37.5 -84t-66.5 -49.5t-103 -20zM482 831v200h99q38 0 68 19t46.5 47.5t26.5 66t13.5 68t3.5 61.5q0 40 -5.5 78.5t-19.5 81.5t-44.5 69t-74.5 26h-113v234h44 q528 0 528 -467q0 -42 -1 -71t-6 -70t-13.5 -71t-25 -66t-40 -63t-58.5 -53.5t-80 -46.5l253 -874h-323l-207 831h-71zM432 0h-316v1782h316v-1782z" />
<glyph unicode="&#x2013;" horiz-adv-x="587" d="M29 452v199h530v-199h-530z" />
<glyph unicode="&#x2014;" horiz-adv-x="909" d="M29 452v199h852v-199h-852z" />
<glyph unicode="&#x2018;" horiz-adv-x="527" d="M396 1288h-272q0 28 -1.5 87t-1.5 90q0 60 4 105t16.5 93.5t34.5 79t61 50.5t92 21l71 -143q-53 -6 -92 -36.5t-40 -76.5h128v-270z" />
<glyph unicode="&#x2019;" horiz-adv-x="524" d="M188 1282l-71 144q54 5 92.5 35t40.5 77h-128v271h271q0 -27 1.5 -87t1.5 -91q0 -60 -4 -105t-16.5 -93t-34.5 -79t-61 -51t-92 -21z" />
<glyph unicode="&#x201a;" horiz-adv-x="423" d="M137 -321l-65 398h273q-21 -144 -66 -398h-142z" />
<glyph unicode="&#x201c;" horiz-adv-x="903" d="M399 1288h-272q0 28 -1.5 88.5t-1.5 91.5q0 49 3 87.5t10 80t22 71.5t37 55t56.5 38.5t79.5 13.5l71 -143q-54 -6 -92 -36t-40 -77h128v-270zM763 1288h-272q0 28 -1.5 87t-1.5 90q0 49 3 88t10 81t22 72t37.5 55.5t57 39t79.5 13.5l70 -143q-54 -5 -92 -36t-40 -77h128 v-270z" />
<glyph unicode="&#x201d;" horiz-adv-x="900" d="M191 1282l-71 144q53 5 92 35.5t40 76.5h-128v271h272q0 -28 1.5 -88.5t1.5 -92.5q0 -59 -4 -104t-16.5 -92.5t-34.5 -78t-61 -50.5t-92 -21zM555 1282l-71 144q54 5 92.5 35t40.5 77h-128v271h272q0 -27 1.5 -87t1.5 -91q0 -49 -3 -88t-10 -81t-22 -72t-37.5 -55.5 t-57 -39t-79.5 -13.5z" />
<glyph unicode="&#x201e;" horiz-adv-x="754" d="M140 -320l-66 398h274q-3 -17 -33.5 -199t-33.5 -199h-141zM464 -320l-67 398h274q-16 -110 -67 -398h-140z" />
<glyph unicode="&#x2022;" horiz-adv-x="895" d="M407 431q-107 18 -179.5 94t-72.5 196q0 148 85 230.5t198 82.5q121 0 212.5 -81.5t91.5 -215.5q0 -146 -85.5 -228t-200.5 -82q-28 0 -49 4z" />
<glyph unicode="&#x2030;" horiz-adv-x="2647" d="M561 0l571 1810h167l-572 -1810h-166zM1459 794v187q172 -9 248.5 -127t76.5 -329v-60q0 -453 -325 -470l-1 186q55 14 73 85t18 200v55q0 130 -17 195.5t-73 77.5zM1408 181v-186q-324 17 -324 470v60q0 211 75.5 329t248.5 127l1 -186q-57 -12 -75 -78.5t-18 -194.5 v-56q0 -128 18.5 -199.5t73.5 -85.5zM459 1596v187q172 -9 248.5 -127t76.5 -329v-60q0 -453 -325 -470l-1 186q55 14 73 85t18 200v55q0 130 -17 195.5t-73 77.5zM408 983v-186q-324 17 -324 470v60q0 211 75.5 329t248.5 127l1 -186q-57 -12 -75 -78.5t-18 -194.5v-56 q0 -128 18.5 -199.5t73.5 -85.5zM2240 794v187q172 -9 248.5 -127t76.5 -329v-60q0 -453 -325 -470l-1 186q55 14 73 85t18 200v55q0 130 -17 195.5t-73 77.5zM2189 181v-186q-324 17 -324 470v60q0 211 75.5 329t248.5 127l1 -186q-57 -12 -75 -78.5t-18 -194.5v-56 q0 -128 18.5 -199.5t73.5 -85.5z" />
<glyph unicode="&#x2039;" horiz-adv-x="605" d="M513 77l-434 499v128l434 499v-294l-260 -268l260 -270v-294z" />
<glyph unicode="&#x203a;" horiz-adv-x="591" d="M79 77v294l260 270l-260 268v294l434 -499v-128z" />
<glyph unicode="&#x2044;" horiz-adv-x="625" d="M16 0l323 1783h187l-326 -1783h-184z" />
<glyph unicode="&#x2074;" horiz-adv-x="808" d="M599 1613h3v-1029h-203v568zM545 1613l-270 -620h74v-146h-267v137l302 629h161zM652 847v146h81v-146h-81z" />
<glyph unicode="&#x20ac;" horiz-adv-x="1052" d="M563 1390v228q393 -21 399 -540v-20h-251v28q0 49 -6 94t-21 92t-46 79t-75 39zM563 -27v233q155 18 155 341v31h248v-25q0 -93 -10 -170.5t-37.5 -154t-71.5 -129.5t-116.5 -87.5t-167.5 -38.5zM512 207v-233q-93 4 -164.5 33t-117 76t-75.5 115t-43 141.5t-16 164.5v50 h-81v173h80v128h-80v173h83v53q4 91 16.5 164.5t42 143.5t74.5 118t116.5 78.5t164.5 33.5l1 -228q-37 -3 -65 -16.5t-45.5 -38t-28.5 -50t-15.5 -63t-6 -66t-1.5 -69.5v-60h161v-173h-161v-128h161v-173h-159v-55q2 -45 5.5 -78t13.5 -73.5t26.5 -67t45.5 -47.5t68 -26z " />
<glyph unicode="&#x2122;" horiz-adv-x="2048" d="M305 686v678h-163v137h482v-137h-164v-678h-155zM731 686v815h225l114 -472l119 472h222v-815h-145v593l-151 -593h-90l-151 590v-590h-143z" />
<glyph unicode="&#x25fc;" horiz-adv-x="1780" d="M0 1780h1780v-1780h-1780v1780z" />
<glyph unicode="&#xf6c3;" horiz-adv-x="505" d="M165 -613l-37 141q55 6 70 26t16 79h-114v287h292q0 -25 0.5 -70.5t0.5 -66.5q0 -81 -4 -135t-17 -107.5t-37.5 -84t-66.5 -49.5t-103 -20z" />
<glyph horiz-adv-x="336" />
<glyph horiz-adv-x="0" />
<glyph horiz-adv-x="1562" d="M318 277l168 542l-459 349h572l178 542l188 -542h572l-461 -349l170 -542l-469 327z" />
</font>
</defs>
</svg>
